<?xml version="1.0" encoding="UTF-8"?>
<svg xmlns="http://www.w3.org/2000/svg" viewBox="0 0 238 173" role="img" aria-labelledby="baytech-logo-mark-title" style="color:#202225">
  <title id="baytech-logo-mark-title">Baytech mark</title>
  <style>
    .baytech-logo-main { fill: currentColor; }
  </style>
  <path class="baytech-logo-main" fill-rule="evenodd" d="M21.5 19 L22 18.5 L23 18.5 L24 18.5 L25 18.5 L26 18.5 L27 18.5 L28 18.5 L29 18.5 L30 18.5 L31 18.5 L32 18.5 L33 18.5 L34 18.5 L35 18.5 L36 18.5 L37 18.5 L38 18.5 L39 18.5 L40 18.5 L41 18.5 L42 18.5 L43 18.5 L44 18.5 L45 18.5 L46 18.5 L47 18.5 L48 18.5 L49 18.5 L50 18.5 L51 18.5 L52 18.5 L53 18.5 L54 18.5 L55 18.5 L56 18.5 L57 18.5 L58 18.5 L59 18.5 L60 18.5 L61 18.5 L62 18.5 L63 18.5 L64 18.5 L65 18.5 L66 18.5 L67 18.5 L68 18.5 L69 18.5 L70 18.5 L71 18.5 L72 18.5 L73 18.5 L74 18.5 L75 18.5 L76 18.5 L77 18.5 L78 18.5 L79 18.5 L80 18.5 L81 18.5 L82 18.5 L83 18.5 L84 18.5 L85 18.5 L86 18.5 L87 18.5 L88 18.5 L89 18.5 L90 18.5 L91 18.5 L92 18.5 L93 18.5 L94 18.5 L95 18.5 L96 18.5 L97 18.5 L98 18.5 L99 18.5 L100 18.5 L101 18.5 L102 18.5 L103 18.5 L104 18.5 L105 18.5 L106 18.5 L107 18.5 L108 18.5 L109 18.5 L110 18.5 L111 18.5 L112 18.5 L113 18.5 L114 18.5 L115 18.5 L116 18.5 L117 18.5 L118 18.5 L119 18.5 L120 18.5 L121 18.5 L122 18.5 L123 18.5 L124 18.5 L125 18.5 L126 18.5 L127 18.5 L128 18.5 L129 18.5 L130 18.5 L131 18.5 L132 18.5 L133 18.5 L134 18.5 L135 18.5 L136 18.5 L137 18.5 L138 18.5 L139 18.5 L140 18.5 L141 18.5 L142 18.5 L143 18.5 L144 18.5 L145 18.5 L146 18.5 L147 18.5 L148 18.5 L149 18.5 L150 18.5 L151 18.5 L152 18.5 L153 18.5 L154 18.5 L155 18.5 L156 18.5 L157 18.5 L158 18.5 L159 18.5 L160 18.5 L161 18.5 L162 18.5 L163 18.5 L164 18.5 L165 18.5 L166 18.5 L167 18.5 L168 18.5 L169 18.5 L170 18.5 L171 18.5 L172 18.5 L173 18.6 L173.4 19 L174 19.5 L175 19.5 L176 19.5 L177 19.77 L177.23 20 L178 20.5 L179 20.5 L179.6 21 L180 21.4 L181 21.5 L182 21.5 L182.5 22 L183 22.5 L184 22.85 L184.15 23 L185 23.5 L185.5 24 L186 24.5 L187 24.5 L187.5 25 L188 25.5 L188.5 26 L189 26.5 L189.54 27 L190 27.46 L191 27.5 L191.5 28 L192 28.5 L192.5 29 L193 29.5 L193.5 30 L194 30.5 L194.5 31 L195 31.81 L195.19 32 L195.5 33 L196 33.5 L196.5 34 L197 34.5 L197.5 35 L197.51 36 L198 36.49 L198.5 37 L199 37.5 L199.5 38 L199.5 39 L200 39.5 L200.5 40 L200.5 41 L201 41.5 L201.5 42 L201.5 43 L202 43.6 L202.4 44 L202.5 45 L202.5 46 L202.71 47 L203 47.29 L203.5 48 L203.5 49 L203.5 50 L203.5 51 L204 51.87 L204.13 52 L204.5 53 L204.5 54 L204.5 55 L204.5 56 L204.5 57 L204.5 58 L204.5 59 L204.5 60 L204.5 61 L204.5 62 L204.45 63 L204 63.74 L203.78 64 L203.5 65 L203.5 66 L203.5 67 L203.5 68 L203 68.52 L202.52 69 L202.5 70 L202.5 71 L202 71.5 L201.5 72 L201.5 73 L201 73.77 L200.77 74 L200.5 75 L200 75.5 L199.5 76 L199.5 77 L199 77.5 L198.5 78 L198.5 79 L198 79.5 L197.5 80 L197 80.5 L196.5 81 L196.36 82 L196 82.36 L195.5 83 L195 83.5 L194.5 84 L194 84.5 L193.5 85 L193 85.5 L192.5 86 L193 86.5 L193.5 87 L194 87.5 L194.5 88 L195 88.5 L195.5 89 L196 89.5 L196.5 90 L197 90.64 L197.36 91 L197.5 92 L198 92.5 L198.5 93 L199 93.54 L199.46 94 L199.5 95 L200 95.5 L200.5 96 L200.5 97 L201 97.55 L201.45 98 L201.5 99 L201.65 100 L202 100.35 L202.5 101 L202.5 102 L202.72 103 L203 103.28 L203.5 104 L203.5 105 L203.5 106 L203.5 107 L203.84 108 L204 108.16 L204.5 109 L204.5 110 L204.5 111 L204.5 112 L204.5 113 L204.5 114 L204.5 115 L204.5 116 L204.5 117 L204.5 118 L204.5 119 L204.43 120 L204 120.47 L203.55 121 L203.5 122 L203.5 123 L203.5 124 L203 124.96 L202.96 125 L202.5 126 L202.5 127 L202.5 128 L202 128.5 L201.5 129 L201.5 130 L201 130.52 L200.52 131 L200.5 132 L200 132.5 L199.5 133 L199.5 134 L199 134.5 L198.5 135 L198.24 136 L198 136.24 L197.5 137 L197 137.5 L196.5 138 L196 138.5 L195.5 139 L195 139.79 L194.79 140 L194.28 141 L194 141.28 L193.5 142 L193 142.5 L192.5 143 L192 143.5 L191.49 144 L191 144.49 L190 144.67 L189.67 145 L189 145.5 L188.5 146 L188 146.5 L187.5 147 L187 147.5 L186 147.5 L185.5 148 L185 148.5 L184.39 149 L184 149.39 L183 149.5 L182.44 150 L182 150.44 L181 150.5 L180 150.55 L179.55 151 L179 151.5 L178 151.5 L177 151.77 L176.77 152 L176 152.5 L175 152.5 L174 152.5 L173.18 153 L173 153.18 L172 153.5 L171 153.5 L170 153.5 L169 153.5 L168 153.5 L167 153.5 L166 153.5 L165 153.5 L164 153.5 L163 153.5 L162 153.5 L161 153.5 L160 153.5 L159 153.5 L158 153.5 L157 153.5 L156 153.5 L155 153.5 L154 153.5 L153 153.5 L152 153.5 L151 153.5 L150 153.5 L149 153.5 L148 153.5 L147 153.5 L146 153.5 L145 153.5 L144 153.5 L143 153.5 L142 153.5 L141 153.5 L140 153.5 L139 153.5 L138 153.5 L137 153.5 L136 153.5 L135 153.5 L134 153.5 L133 153.5 L132 153.5 L131 153.5 L130 153.5 L129 153.5 L128 153.5 L127 153.5 L126 153.5 L125 153.5 L124 153.5 L123 153.5 L122 153.5 L121 153.5 L120 153.5 L119 153.5 L118 153.5 L117 153.5 L116 153.5 L115 153.5 L114 153.5 L113 153.5 L112 153.5 L111 153.5 L110 153.5 L109 153.5 L108 153.5 L107 153.5 L106 153.5 L105 153.5 L104 153.5 L103 153.5 L102 153.5 L101 153.5 L100 153.5 L99 153.5 L98 153.5 L97 153.5 L96 153.5 L95 153.5 L94 153.5 L93 153.5 L92 153.5 L91 153.5 L90 153.5 L89 153.5 L88 153.5 L87 153.5 L86 153.5 L85 153.5 L84 153.5 L83 153.5 L82 153.5 L81 153.5 L80 153.5 L79 153.5 L78 153.5 L77 153.5 L76 153.5 L75 153.5 L74 153.5 L73 153.5 L72 153.5 L71 153.5 L70 153.5 L69 153.5 L68 153.5 L67 153.5 L66 153.5 L65 153.5 L64 153.5 L63 153.5 L62 153.5 L61 153.5 L60 153.5 L59 153.5 L58 153.5 L57 153.5 L56 153.5 L55 153.5 L54 153.5 L53 153.5 L52 153.5 L51 153.5 L50 153.5 L49 153.5 L48 153.5 L47 153.5 L46 153.5 L45 153.5 L44 153.5 L43 153.5 L42 153.5 L41 153.5 L40 153.5 L39 153.5 L38 153.5 L37 153.5 L36 153.5 L35 153.5 L34 153.5 L33 153.5 L32 153.5 L31 153.5 L30 153.5 L29 153.5 L28 153.5 L27 153.5 L26 153.5 L25 153.5 L24 153.5 L23 153.5 L22 153.5 L21 153.5 L20 153.5 L19 153.5 L18 153.5 L17.5 153 L17.5 152 L17.5 151 L17.5 150 L17.5 149 L17.5 148 L17.5 147 L17.5 146 L17.5 145 L17.5 144 L17.5 143 L17.5 142 L17.5 141 L17.5 140 L17.5 139 L17.5 138 L17.5 137 L17.5 136 L17.5 135 L17.5 134 L17.5 133 L17.5 132 L17.5 131 L17.5 130 L17.5 129 L17.5 128 L17.5 127 L17.5 126 L17.5 125 L17.5 124 L17.5 123 L17.5 122 L17.5 121 L17.5 120 L17.5 119 L17.5 118 L17.5 117 L17.5 116 L17.5 115 L17.5 114 L17.5 113 L17.5 112 L17.5 111 L17.5 110 L17.5 109 L17.5 108 L17.5 107 L17.5 106 L17.5 105 L17.5 104 L17.5 103 L17.5 102 L17.5 101 L17.5 100 L17.5 99 L17.5 98 L17.5 97 L17.5 96 L17.5 95 L17.5 94 L17.5 93 L17.5 92 L17.5 91 L17.5 90 L17.5 89 L17.5 88 L17.5 87 L17.5 86 L17.5 85 L17.5 84 L17.5 83 L17.5 82 L17.5 81 L17.5 80 L17.5 79 L17.5 78 L17.5 77 L17.5 76 L17.5 75 L17.5 74 L18 73.43 L18.43 73 L19 72.5 L20 72.5 L21 72.5 L22 72.5 L23 72.5 L24 72.5 L25 72.5 L26 72.5 L27 72.5 L28 72.5 L29 72.5 L30 72.5 L31 72.5 L32 72.5 L33 72.5 L34 72.5 L35 72.5 L36 72.5 L37 72.5 L38 72.5 L39 72.5 L40 72.5 L41 72.5 L42 72.5 L43 72.5 L44 72.5 L45 72.5 L46 72.5 L47 72.5 L48 72.5 L49 72.5 L50 72.5 L51 72.5 L52 72.5 L53 72.5 L54 72.5 L55 72.5 L56 72.5 L57 72.5 L58 72.5 L59 72.5 L60 72.5 L61 72.5 L62 72.5 L63 72.5 L64 72.5 L65 72.5 L66 72.5 L67 72.5 L68 72.5 L69 72.5 L70 72.5 L71 72.5 L72 72.5 L73 72.5 L74 72.5 L75 72.5 L76 72.5 L77 72.5 L78 72.5 L79 72.5 L80 72.5 L81 72.5 L82 72.5 L83 72.5 L84 72.5 L85 72.5 L86 72.5 L87 72.5 L88 72.5 L89 72.5 L90 72.5 L91 72.5 L92 72.5 L93 72.5 L94 72.5 L95 72.5 L96 72.5 L97 72.5 L98 72.5 L99 72.5 L100 72.5 L101 72.5 L102 72.5 L103 72.5 L104 72.5 L105 72.5 L106 72.5 L107 72.5 L108 72.5 L109 72.5 L110 72.5 L111 72.5 L112 72.5 L113 72.5 L114 72.5 L115 72.5 L116 72.5 L117 72.5 L118 72.5 L119 72.5 L120 72.5 L121 72.5 L122 72.5 L123 72.5 L124 72.5 L125 72.5 L126 72.5 L127 72.5 L128 72.5 L129 72.5 L130 72.5 L131 72.5 L132 72.5 L133 72.5 L134 72.5 L135 72.5 L136 72.5 L137 72.5 L138 72.5 L139 72.5 L140 72.5 L141 72.5 L142 72.5 L143 72.5 L144 72.5 L145 72.5 L146 72.5 L147 72.5 L148 72.5 L149 72.5 L150 72.5 L151 72.5 L152 72.5 L153 72.5 L154 72.5 L155 72.5 L156 72.5 L157 72.5 L158 72.5 L159 72.5 L160 72.5 L161 72.5 L162 72.5 L163 72.5 L164 72.5 L165 72.5 L166 72.5 L167 72.5 L168 72.5 L168.5 72 L169 71.5 L170 71.5 L171 71.5 L171.5 71 L172 70.5 L172.81 70 L173 69.81 L174 69.5 L174.5 69 L175 68.5 L175.5 68 L176 67.5 L176.5 67 L176.83 66 L177 65.83 L177.5 65 L178 64.5 L178.5 64 L178.5 63 L178.5 62 L178.76 61 L179 60.76 L179.5 60 L179.5 59 L179.5 58 L179.5 57 L179.5 56 L179.5 55 L179 54.5 L178.5 54 L178.5 53 L178.47 52 L178 51.53 L177.5 51 L177 50.5 L176.5 50 L176.45 49 L176 48.55 L175.5 48 L175 47.5 L174.25 47 L174 46.75 L173 46.5 L172.5 46 L172 45.5 L171 45.5 L170.5 45 L170 44.5 L169 44.5 L168 44.5 L167 44.33 L166.59 44 L166 43.58 L165 43.5 L164 43.5 L163 43.5 L162 43.5 L161 43.5 L160 43.5 L159 43.5 L158 43.5 L157 43.5 L156 43.5 L155 43.5 L154 43.5 L153 43.5 L152 43.5 L151 43.5 L150 43.5 L149 43.5 L148 43.5 L147 43.51 L146 43.51 L145 43.51 L144 43.51 L143 43.5 L142 43.5 L141 43.5 L140 43.5 L139 43.5 L138 43.5 L137 43.5 L136 43.5 L135 43.5 L134 43.5 L133 43.5 L132 43.5 L131 43.5 L130 43.5 L129 43.5 L128 43.5 L127 43.5 L126 43.5 L125 43.5 L124 43.5 L123 43.5 L122 43.5 L121 43.5 L120 43.5 L119 43.51 L118 43.51 L117 43.51 L116 43.51 L115 43.51 L114 43.54 L113 43.54 L112 43.54 L111 43.52 L110 43.52 L109 43.52 L108 43.52 L107 43.53 L106 43.53 L105 43.53 L104 43.53 L103 43.53 L102 43.53 L101 43.56 L100 43.56 L99 43.57 L98 43.57 L97 43.57 L96 43.57 L95 43.56 L94 43.58 L93 43.54 L92 43.55 L91 43.55 L90 43.55 L89 43.54 L88 43.56 L87 43.54 L86 43.54 L85 43.56 L84 43.56 L83 43.56 L82 43.56 L81 43.59 L80 43.59 L79 43.59 L78 43.59 L77 43.59 L76 43.59 L75 43.59 L74 43.59 L73 43.59 L72 43.56 L71 43.56 L70 43.56 L69 43.56 L68 43.56 L67 43.53 L66 43.53 L65 43.53 L64 43.53 L63 43.53 L62 43.53 L61 43.53 L60 43.52 L59 43.53 L58 43.53 L57 43.53 L56 43.55 L55 43.57 L54 43.59 L53 43.59 L52 43.6 L51 43.63 L50 43.65 L49 43.69 L48 43.69 L47 43.69 L46 43.7 L45 43.73 L44 43.75 L43 43.74 L42 43.7 L41 43.69 L40 43.59 L39 43.53 L38 43.5 L37 43.5 L36 43.5 L35.5 43 L35 42.5 L34.5 42 L34 41.5 L33.5 41 L33 40.5 L32.5 40 L32 39.45 L31.55 39 L31.04 38 L31 37.96 L30.4 37 L30 36.6 L29.46 36 L29 35.54 L28.5 35 L28 34.5 L27.5 34 L27 33.5 L26.5 33 L26 32.5 L25.5 32 L25 31.5 L24.5 31 L24 30.5 L23.5 30 L23 29.5 L22.5 29 L22.5 28 L22.5 27 L22.5 26 L22.5 25 L22.5 24 L22 23.5 L21.5 23 L21.5 22 L21.5 21 L21.5 20 L21.5 19 Z M44 98.5 L43.5 99 L43.5 100 L43.5 101 L43.5 102 L43.5 103 L43.5 104 L43.5 105 L43.5 106 L43.5 107 L43.5 108 L43.5 109 L43.5 110 L43.5 111 L43.5 112 L43.5 113 L43.5 114 L43.5 115 L43.5 116 L43.5 117 L43.5 118 L43.5 119 L43.5 120 L43.5 121 L43.5 122 L43.5 123 L43.5 124 L43.5 125 L43.5 126 L43.5 127 L44 127.5 L45 127.5 L46 127.5 L47 127.5 L48 127.5 L49 127.5 L50 127.5 L51 127.5 L52 127.5 L53 127.5 L54 127.5 L55 127.5 L56 127.5 L57 127.5 L58 127.5 L59 127.5 L60 127.5 L61 127.5 L62 127.5 L63 127.5 L64 127.5 L65 127.5 L66 127.5 L67 127.5 L68 127.5 L69 127.5 L70 127.5 L71 127.5 L72 127.5 L73 127.5 L74 127.5 L75 127.5 L76 127.5 L77 127.5 L78 127.5 L79 127.5 L80 127.5 L81 127.5 L82 127.5 L83 127.5 L84 127.5 L85 127.5 L86 127.5 L87 127.5 L88 127.5 L89 127.5 L90 127.5 L91 127.5 L92 127.5 L93 127.5 L94 127.5 L95 127.5 L96 127.5 L97 127.5 L98 127.5 L99 127.5 L100 127.5 L101 127.5 L102 127.5 L103 127.5 L104 127.5 L105 127.5 L106 127.5 L107 127.5 L108 127.5 L109 127.5 L110 127.5 L111 127.5 L112 127.5 L113 127.5 L114 127.5 L115 127.5 L116 127.5 L117 127.5 L118 127.5 L119 127.5 L120 127.5 L121 127.5 L122 127.5 L123 127.5 L124 127.5 L125 127.5 L126 127.5 L127 127.5 L128 127.5 L129 127.5 L130 127.5 L131 127.5 L132 127.5 L133 127.5 L134 127.5 L135 127.5 L136 127.5 L137 127.5 L138 127.5 L139 127.5 L140 127.5 L141 127.5 L142 127.5 L143 127.5 L144 127.5 L145 127.5 L146 127.5 L147 127.5 L148 127.5 L149 127.5 L150 127.5 L151 127.5 L152 127.5 L153 127.5 L154 127.5 L155 127.5 L156 127.5 L157 127.5 L158 127.5 L159 127.5 L160 127.5 L161 127.5 L162 127.5 L163 127.5 L164 127.5 L165 127.5 L166 127.5 L167 127.5 L168 127.5 L168.54 127 L169 126.54 L170 126.5 L171 126.5 L171.5 126 L172 125.5 L173 125.46 L173.46 125 L174 124.5 L174.5 124 L175 123.5 L175.5 123 L176 122.5 L176.5 122 L177 121.5 L177.5 121 L177.5 120 L178 119.5 L178.5 119 L178.5 118 L178.5 117 L179 116.19 L179.19 116 L179.5 115 L179.5 114 L179.5 113 L179.5 112 L179.5 111 L179 110.42 L178.58 110 L178.5 109 L178.5 108 L178 107.5 L177.5 107 L177.5 106 L177 105.5 L176.5 105 L176 104.01 L176 104 L175.41 103 L175 102.59 L174 102.48 L173.52 102 L173 101.5 L172.5 101 L172 100.5 L171 100.5 L170.5 100 L170 99.5 L169 99.5 L168 99.5 L167.47 99 L167 98.53 L166 98.5 L165 98.5 L164 98.5 L163 98.5 L162 98.5 L161 98.5 L160 98.5 L159 98.5 L158 98.5 L157 98.5 L156 98.5 L155 98.5 L154 98.5 L153 98.5 L152 98.5 L151 98.5 L150 98.5 L149 98.5 L148 98.5 L147 98.5 L146 98.5 L145 98.5 L144 98.5 L143 98.5 L142 98.5 L141 98.5 L140 98.5 L139 98.5 L138 98.5 L137 98.5 L136 98.5 L135 98.5 L134 98.5 L133 98.5 L132 98.5 L131 98.5 L130 98.5 L129 98.5 L128 98.5 L127 98.5 L126 98.5 L125 98.5 L124 98.5 L123 98.5 L122 98.5 L121 98.5 L120 98.5 L119 98.5 L118 98.5 L117 98.5 L116 98.5 L115 98.5 L114 98.5 L113 98.5 L112 98.5 L111 98.5 L110 98.5 L109 98.5 L108 98.5 L107 98.5 L106 98.5 L105 98.5 L104 98.5 L103 98.5 L102 98.5 L101 98.5 L100 98.5 L99 98.5 L98 98.5 L97 98.5 L96 98.5 L95 98.5 L94 98.5 L93 98.5 L92 98.5 L91 98.5 L90 98.5 L89 98.5 L88 98.5 L87 98.5 L86 98.5 L85 98.5 L84 98.5 L83 98.5 L82 98.5 L81 98.5 L80 98.5 L79 98.5 L78 98.5 L77 98.5 L76 98.5 L75 98.5 L74 98.5 L73 98.5 L72 98.5 L71 98.5 L70 98.5 L69 98.5 L68 98.5 L67 98.5 L66 98.5 L65 98.5 L64 98.5 L63 98.5 L62 98.5 L61 98.5 L60 98.5 L59 98.5 L58 98.5 L57 98.5 L56 98.5 L55 98.5 L54 98.5 L53 98.5 L52 98.5 L51 98.5 L50 98.5 L49 98.5 L48 98.5 L47 98.5 L46 98.5 L45 98.5 L44 98.5 Z"/>
</svg>
