<?xml version="1.0" encoding="UTF-8"?>
<svg xmlns="http://www.w3.org/2000/svg" viewBox="0 0 1626 173" role="img" aria-labelledby="baytech-logo-title" style="color:#202225;--baytech-logo-accent:#26b86a">
  <title id="baytech-logo-title">Baytech</title>
  <style>
    .baytech-logo-main { fill: currentColor; }
    .baytech-logo-accent { fill: var(--baytech-logo-accent, #26b86a); }
  </style>
  <path class="baytech-logo-main" fill-rule="evenodd" d="M373.4 18 L374 17.75 L375 17.97 L375.04 18 L376 18.45 L377 18.5 L378 18.5 L379 18.5 L380 18.5 L380.5 19 L381 19.5 L382 19.5 L382.58 20 L383 20.42 L384 20.5 L384.5 21 L385 21.5 L386 21.68 L386.32 22 L387 22.5 L387.5 23 L388 23.56 L388.44 24 L388.5 25 L389 25.5 L389.5 26 L390 26.5 L390.5 27 L390.5 28 L391 28.5 L391.5 29 L392 29.94 L392.06 30 L392.5 31 L393 31.5 L393.5 32 L394 32.87 L394.13 33 L394.5 34 L395 34.5 L395.5 35 L395.86 36 L396 36.14 L396.5 37 L397 37.5 L397.5 38 L397.5 39 L398 39.5 L398.5 40 L399 40.5 L399.5 41 L399.5 42 L400 42.5 L400.5 43 L401 43.5 L401.5 44 L401.5 45 L402 45.5 L402.5 46 L402.63 47 L403 47.37 L403.5 48 L404 48.5 L404.5 49 L404.5 50 L405 50.5 L405.5 51 L406 51.5 L406.5 52 L406.5 53 L407 53.5 L407.5 54 L408 54.5 L408.5 55 L408.5 56 L409 56.5 L409.5 57 L410 57.58 L410.42 58 L410.5 59 L411 59.5 L411.5 60 L412 60.59 L412.41 61 L412.5 62 L413 62.5 L413.5 63 L413.71 64 L414 64.29 L414.5 65 L415 65.5 L415.5 66 L415.5 67 L416 67.5 L416.5 68 L417 68.5 L417.5 69 L417.5 70 L418 70.5 L418.5 71 L419 71.5 L419.5 72 L419.5 73 L420 73.5 L420.5 74 L421 74.75 L421.25 75 L421.5 76 L422 76.5 L422.5 77 L422.52 78 L423 78.48 L423.5 79 L424 79.5 L424.5 80 L424.5 81 L425 81.5 L425.5 82 L426 82.5 L426.5 83 L426.5 84 L427 84.5 L427.5 85 L428 85.5 L428.5 86 L428.5 87 L429 87.5 L429.5 88 L430 88.5 L430.5 89 L430.5 90 L431 90.5 L431.5 91 L431.78 92 L432 92.22 L432.5 93 L433 93.5 L433.5 94 L433.5 95 L434 95.5 L434.5 96 L435 96.5 L435.5 97 L435.52 98 L436 98.48 L436.5 99 L437 99.5 L437.5 100 L437.5 101 L438 101.5 L438.5 102 L439 102.5 L439.5 103 L439.5 104 L440 104.5 L440.5 105 L441 105.61 L441.39 106 L441.5 107 L442 107.5 L442.5 108 L443 108.5 L443.5 109 L443.5 110 L444 110.5 L444.5 111 L445 111.97 L445.03 112 L445.5 113 L446 113.5 L446.5 114 L446.5 115 L447 115.5 L447.5 116 L448 116.5 L448.5 117 L448.5 118 L449 118.5 L449.5 119 L450 119.5 L450.5 120 L450.5 121 L451 121.5 L451.5 122 L452 122.5 L452.5 123 L452.5 124 L453 124.5 L453.5 125 L454 125.53 L454.47 126 L454.5 127 L455 127.5 L455.5 128 L456 128.61 L456.39 129 L456.5 130 L457 130.5 L457.5 131 L458 131.94 L458.06 132 L458.5 133 L459 133.5 L459.5 134 L459.58 135 L460 135.42 L460.5 136 L461 136.5 L461.5 137 L461.5 138 L462 138.5 L462.5 139 L463 139.58 L463.42 140 L463.5 141 L464 141.5 L464.5 142 L464.9 143 L465 143.1 L465.5 144 L466 144.5 L466.5 145 L466.5 146 L467 146.5 L467.5 147 L468 147.5 L468.5 148 L468.5 149 L469 149.5 L469.5 150 L470 150.86 L470.14 151 L470.5 152 L471 152.5 L471.5 153 L471 153.5 L470 153.5 L469 153.5 L468 153.5 L467 153.5 L466 153.5 L465 153.5 L464 153.5 L463 153.5 L462 153.5 L461 153.5 L460 153.5 L459 153.5 L458 153.5 L457 153.5 L456 153.5 L455 153.5 L454 153.5 L453 153.5 L452 153.5 L451 153.5 L450 153.5 L449 153.5 L448 153.5 L447 153.5 L446 153.5 L445 153.5 L444 153.5 L443 153.5 L442 153.5 L441 153.5 L440 153.37 L439.63 153 L439.5 152 L439 151.5 L438.5 151 L438.48 150 L438 149.52 L437.5 149 L437 148.5 L436.5 148 L436.5 147 L436 146.5 L435.5 146 L435 145.5 L434.5 145 L434.5 144 L434 143.5 L433.5 143 L433.5 142 L433 141.5 L432.5 141 L432 140.5 L431.5 140 L431.5 139 L431 138.5 L430.5 138 L430 137.5 L429.5 137 L429.5 136 L429 135.5 L428.5 135 L428 134.13 L427.87 134 L427.5 133 L427 132.5 L426.5 132 L426.5 131 L426 130.5 L425.5 130 L425 129.5 L424.5 129 L424.5 128 L424 127.5 L423.5 127 L423 126.5 L422.5 126 L422.5 125 L422 124.5 L421.5 124 L421.43 123 L421 122.57 L420.5 122 L420 121.5 L419.5 121 L419.5 120 L419 119.5 L418.5 119 L418 118.5 L417.5 118 L417.5 117 L417 116.5 L416.5 116 L416 115.5 L415.5 115 L415.5 114 L415 113.5 L414.5 113 L414.24 112 L414 111.76 L413.5 111 L413 110.5 L412.5 110 L412.5 109 L412 108.5 L411.5 108 L411 107.5 L410.5 107 L410.5 106 L410 105.5 L409.5 105 L409 104.5 L408.5 104 L408.5 103 L408 102.5 L407.5 102 L407 101.22 L406.78 101 L406.5 100 L406 99.5 L405.5 99 L405.18 98 L405 97.82 L404.5 97 L404 96.5 L403.5 96 L403.5 95 L403 94.5 L402.5 94 L402 93.5 L401.5 93 L401.5 92 L401 91.5 L400.5 91 L400 90.2 L399.8 90 L399.5 89 L399 88.5 L398.5 88 L398.5 87 L398 86.5 L397.5 86 L397 85.5 L396.5 85 L396.5 84 L396 83.5 L395.5 83 L395 82.5 L394.5 82 L394.5 81 L394 80.5 L393.5 80 L393.47 79 L393 78.53 L392.5 78 L392 77.5 L391.5 77 L391.5 76 L391 75.5 L390.5 75 L390 74.5 L389.5 74 L389.5 73 L389 72.5 L388.5 72 L388 71.5 L387.5 71 L387.5 70 L387 69.5 L386.5 69 L386.39 68 L386 67.61 L385.5 67 L385 66.5 L384.5 66 L384.5 65 L384 64.5 L383.5 64 L383 63.5 L382.5 63 L382.5 62 L382 61.5 L381.5 61 L381 60.5 L380.5 60 L380.5 59 L380 58.5 L379.5 58 L379.1 57 L379 56.9 L378.5 56 L378 55.5 L377.5 55 L377.5 54 L377 53.5 L376.5 53 L376 52.5 L375.5 52 L375.5 51 L375 50.5 L374.5 50 L374 49.5 L373.5 50 L373 50.67 L372.67 51 L372.5 52 L372 52.5 L371.5 53 L371.5 54 L371 54.5 L370.5 55 L370 55.5 L369.5 56 L369.5 57 L369 57.5 L368.5 58 L368 58.51 L367.51 59 L367.5 60 L367 60.5 L366.5 61 L366.5 62 L366 62.5 L365.5 63 L365 63.5 L364.5 64 L364.5 65 L364 65.5 L363.5 66 L363 66.5 L362.5 67 L362.5 68 L362 68.5 L361.5 69 L361 69.5 L360.5 70 L360.5 71 L360 71.5 L359.5 72 L359 72.5 L358.5 73 L358.5 74 L358 74.5 L357.5 75 L357 75.5 L356.5 76 L356.5 77 L356 77.5 L355.5 78 L355.1 79 L355 79.1 L354.5 80 L354 80.5 L353.5 81 L353.5 82 L353 82.5 L352.5 83 L352 83.5 L351.5 84 L351.5 85 L351 85.5 L350.5 86 L350.28 87 L350 87.28 L349.5 88 L349 88.5 L348.5 89 L348.5 90 L348 90.5 L347.5 91 L347 91.5 L346.5 92 L346.5 93 L346 93.5 L345.5 94 L345 94.5 L344.5 95 L344.5 96 L344 96.5 L343.5 97 L343 97.51 L342.51 98 L342.5 99 L342 99.5 L341.5 100 L341.5 101 L341 101.5 L340.5 102 L340 102.5 L339.5 103 L339.5 104 L339 104.5 L338.5 105 L338 105.52 L337.52 106 L337.5 107 L337 107.5 L336.5 108 L336 108.5 L335.5 109 L335.5 110 L335 110.5 L334.5 111 L334.31 112 L334 112.31 L333.5 113 L333 113.5 L332.5 114 L332.5 115 L332 115.5 L331.5 116 L331 116.5 L330.5 117 L330.5 118 L330 118.5 L329.5 119 L329 119.56 L328.56 120 L328.5 121 L328 121.5 L327.5 122 L327 122.5 L326.5 123 L326.5 124 L326 124.5 L325.5 125 L325 125.69 L324.69 126 L324.5 127 L324 127.5 L323.5 128 L323.42 129 L323 129.42 L322.5 130 L322 130.5 L321.5 131 L321.5 132 L321 132.5 L320.5 133 L320 133.5 L319.5 134 L319.5 135 L319 135.5 L318.5 136 L318 136.79 L317.79 137 L317.5 138 L317 138.5 L316.5 139 L316.5 140 L316 140.5 L315.5 141 L315 141.5 L314.5 142 L314.5 143 L314 143.5 L313.5 144 L313 144.5 L312.5 145 L312.5 146 L312 146.5 L311.5 147 L311 147.5 L310.5 148 L310.5 149 L310 149.5 L309.5 150 L309.5 151 L309 151.5 L308.5 152 L308 152.5 L307.5 153 L307 153.5 L306 153.5 L305 153.5 L304 153.5 L303 153.5 L302 153.5 L301 153.5 L300 153.5 L299 153.5 L298 153.5 L297 153.5 L296 153.5 L295 153.5 L294 153.5 L293 153.5 L292 153.5 L291 153.5 L290 153.5 L289 153.5 L288 153.5 L287 153.5 L286 153.5 L285 153.5 L284 153.5 L283 153.5 L282 153.5 L281 153.5 L280 153.5 L279 153.5 L278 153.5 L277 153.5 L276.5 153 L276.5 152 L277 151.5 L277.5 151 L278 150.5 L278.5 150 L278.5 149 L279 148.5 L279.5 148 L280 147.5 L280.5 147 L280.5 146 L281 145.5 L281.5 145 L282 144.41 L282.41 144 L282.5 143 L283 142.5 L283.5 142 L283.69 141 L284 140.69 L284.5 140 L285 139.5 L285.5 139 L285.5 138 L286 137.5 L286.5 137 L287 136.5 L287.5 136 L287.5 135 L288 134.5 L288.5 134 L289 133.19 L289.19 133 L289.5 132 L290 131.5 L290.5 131 L291 130.36 L291.36 130 L291.5 129 L292 128.5 L292.5 128 L293 127.26 L293.26 127 L293.5 126 L294 125.5 L294.5 125 L295 124.22 L295.22 124 L295.5 123 L296 122.5 L296.5 122 L296.95 121 L297 120.95 L297.5 120 L298 119.5 L298.5 119 L298.5 118 L299 117.5 L299.5 117 L300 116.5 L300.5 116 L300.5 115 L301 114.5 L301.5 114 L302 113.5 L302.5 113 L302.5 112 L303 111.5 L303.5 111 L304 110.5 L304.5 110 L304.5 109 L305 108.5 L305.5 108 L306 107.5 L306.5 107 L306.5 106 L307 105.5 L307.5 105 L308 104.5 L308.5 104 L308.5 103 L309 102.5 L309.5 102 L310 101.46 L310.46 101 L310.5 100 L311 99.5 L311.5 99 L311.6 98 L312 97.6 L312.5 97 L313 96.5 L313.5 96 L313.5 95 L314 94.5 L314.5 94 L315 93.5 L315.5 93 L315.5 92 L316 91.5 L316.5 91 L317 90.5 L317.5 90 L317.5 89 L318 88.5 L318.5 88 L319 87.5 L319.5 87 L319.5 86 L320 85.5 L320.5 85 L321 84.31 L321.31 84 L321.5 83 L322 82.5 L322.5 82 L322.79 81 L323 80.79 L323.5 80 L324 79.5 L324.5 79 L324.5 78 L325 77.5 L325.5 77 L326 76.5 L326.5 76 L326.5 75 L327 74.5 L327.5 74 L328 73.5 L328.5 73 L328.5 72 L329 71.5 L329.5 71 L330 70.5 L330.5 70 L330.5 69 L331 68.5 L331.5 68 L332 67.5 L332.5 67 L332.5 66 L333 65.5 L333.5 65 L334 64.48 L334.48 64 L334.5 63 L335 62.5 L335.5 62 L335.68 61 L336 60.68 L336.5 60 L337 59.5 L337.5 59 L337.52 58 L338 57.52 L338.5 57 L339 56.5 L339.5 56 L339.54 55 L340 54.54 L340.5 54 L341 53.5 L341.5 53 L341.55 52 L342 51.55 L342.5 51 L343 50.5 L343.5 50 L343.5 49 L344 48.5 L344.5 48 L345 47.5 L345.5 47 L345.5 46 L346 45.5 L346.5 45 L347 44.48 L347.48 44 L347.5 43 L348 42.5 L348.5 42 L348.97 41 L349 40.97 L349.5 40 L350 39.5 L350.5 39 L350.5 38 L351 37.5 L351.5 37 L352 36.5 L352.5 36 L352.5 35 L353 34.5 L353.5 34 L354 33.5 L354.5 33 L354.5 32 L355 31.5 L355.5 31 L356 30.5 L356.5 30 L356.5 29 L357 28.5 L357.5 28 L358 27.33 L358.33 27 L358.5 26 L359 25.5 L359.5 25 L360 24.47 L360.47 24 L360.87 23 L361 22.87 L362 22.49 L362.49 22 L363 21.5 L363.5 21 L364 20.5 L365 20.5 L365.5 20 L366 19.5 L367 19.5 L367.5 19 L368 18.5 L369 18.5 L370 18.5 L371 18.5 L372 18.5 L373 18.19 L373.4 18 Z M21.5 19 L22 18.5 L23 18.5 L24 18.5 L25 18.5 L26 18.5 L27 18.5 L28 18.5 L29 18.5 L30 18.5 L31 18.5 L32 18.5 L33 18.5 L34 18.5 L35 18.5 L36 18.5 L37 18.5 L38 18.5 L39 18.5 L40 18.5 L41 18.5 L42 18.5 L43 18.5 L44 18.5 L45 18.5 L46 18.5 L47 18.5 L48 18.5 L49 18.5 L50 18.5 L51 18.5 L52 18.5 L53 18.5 L54 18.5 L55 18.5 L56 18.5 L57 18.5 L58 18.5 L59 18.5 L60 18.5 L61 18.5 L62 18.5 L63 18.5 L64 18.5 L65 18.5 L66 18.5 L67 18.5 L68 18.5 L69 18.5 L70 18.5 L71 18.5 L72 18.5 L73 18.5 L74 18.5 L75 18.5 L76 18.5 L77 18.5 L78 18.5 L79 18.5 L80 18.5 L81 18.5 L82 18.5 L83 18.5 L84 18.5 L85 18.5 L86 18.5 L87 18.5 L88 18.5 L89 18.5 L90 18.5 L91 18.5 L92 18.5 L93 18.5 L94 18.5 L95 18.5 L96 18.5 L97 18.5 L98 18.5 L99 18.5 L100 18.5 L101 18.5 L102 18.5 L103 18.5 L104 18.5 L105 18.5 L106 18.5 L107 18.5 L108 18.5 L109 18.5 L110 18.5 L111 18.5 L112 18.5 L113 18.5 L114 18.5 L115 18.5 L116 18.5 L117 18.5 L118 18.5 L119 18.5 L120 18.5 L121 18.5 L122 18.5 L123 18.5 L124 18.5 L125 18.5 L126 18.5 L127 18.5 L128 18.5 L129 18.5 L130 18.5 L131 18.5 L132 18.5 L133 18.5 L134 18.5 L135 18.5 L136 18.5 L137 18.5 L138 18.5 L139 18.5 L140 18.5 L141 18.5 L142 18.5 L143 18.5 L144 18.5 L145 18.5 L146 18.5 L147 18.5 L148 18.5 L149 18.5 L150 18.5 L151 18.5 L152 18.5 L153 18.5 L154 18.5 L155 18.5 L156 18.5 L157 18.5 L158 18.5 L159 18.5 L160 18.5 L161 18.5 L162 18.5 L163 18.5 L164 18.5 L165 18.5 L166 18.5 L167 18.5 L168 18.5 L169 18.5 L170 18.5 L171 18.5 L172 18.5 L173 18.6 L173.4 19 L174 19.5 L175 19.5 L176 19.5 L177 19.77 L177.23 20 L178 20.5 L179 20.5 L179.6 21 L180 21.4 L181 21.5 L182 21.5 L182.5 22 L183 22.5 L184 22.85 L184.15 23 L185 23.5 L185.5 24 L186 24.5 L187 24.5 L187.5 25 L188 25.5 L188.5 26 L189 26.5 L189.54 27 L190 27.46 L191 27.5 L191.5 28 L192 28.5 L192.5 29 L193 29.5 L193.5 30 L194 30.5 L194.5 31 L195 31.81 L195.19 32 L195.5 33 L196 33.5 L196.5 34 L197 34.5 L197.5 35 L197.51 36 L198 36.49 L198.5 37 L199 37.5 L199.5 38 L199.5 39 L200 39.5 L200.5 40 L200.5 41 L201 41.5 L201.5 42 L201.5 43 L202 43.6 L202.4 44 L202.5 45 L202.5 46 L202.71 47 L203 47.29 L203.5 48 L203.5 49 L203.5 50 L203.5 51 L204 51.87 L204.13 52 L204.5 53 L204.5 54 L204.5 55 L204.5 56 L204.5 57 L204.5 58 L204.5 59 L204.5 60 L204.5 61 L204.5 62 L204.45 63 L204 63.74 L203.78 64 L203.5 65 L203.5 66 L203.5 67 L203.5 68 L203 68.52 L202.52 69 L202.5 70 L202.5 71 L202 71.5 L201.5 72 L201.5 73 L201 73.77 L200.77 74 L200.5 75 L200 75.5 L199.5 76 L199.5 77 L199 77.5 L198.5 78 L198.5 79 L198 79.5 L197.5 80 L197 80.5 L196.5 81 L196.36 82 L196 82.36 L195.5 83 L195 83.5 L194.5 84 L194 84.5 L193.5 85 L193 85.5 L192.5 86 L193 86.5 L193.5 87 L194 87.5 L194.5 88 L195 88.5 L195.5 89 L196 89.5 L196.5 90 L197 90.64 L197.36 91 L197.5 92 L198 92.5 L198.5 93 L199 93.54 L199.46 94 L199.5 95 L200 95.5 L200.5 96 L200.5 97 L201 97.55 L201.45 98 L201.5 99 L201.65 100 L202 100.35 L202.5 101 L202.5 102 L202.72 103 L203 103.28 L203.5 104 L203.5 105 L203.5 106 L203.5 107 L203.84 108 L204 108.16 L204.5 109 L204.5 110 L204.5 111 L204.5 112 L204.5 113 L204.5 114 L204.5 115 L204.5 116 L204.5 117 L204.5 118 L204.5 119 L204.43 120 L204 120.47 L203.55 121 L203.5 122 L203.5 123 L203.5 124 L203 124.96 L202.96 125 L202.5 126 L202.5 127 L202.5 128 L202 128.5 L201.5 129 L201.5 130 L201 130.52 L200.52 131 L200.5 132 L200 132.5 L199.5 133 L199.5 134 L199 134.5 L198.5 135 L198.24 136 L198 136.24 L197.5 137 L197 137.5 L196.5 138 L196 138.5 L195.5 139 L195 139.79 L194.79 140 L194.28 141 L194 141.28 L193.5 142 L193 142.5 L192.5 143 L192 143.5 L191.49 144 L191 144.49 L190 144.67 L189.67 145 L189 145.5 L188.5 146 L188 146.5 L187.5 147 L187 147.5 L186 147.5 L185.5 148 L185 148.5 L184.39 149 L184 149.39 L183 149.5 L182.44 150 L182 150.44 L181 150.5 L180 150.55 L179.55 151 L179 151.5 L178 151.5 L177 151.77 L176.77 152 L176 152.5 L175 152.5 L174 152.5 L173.18 153 L173 153.18 L172 153.5 L171 153.5 L170 153.5 L169 153.5 L168 153.5 L167 153.5 L166 153.5 L165 153.5 L164 153.5 L163 153.5 L162 153.5 L161 153.5 L160 153.5 L159 153.5 L158 153.5 L157 153.5 L156 153.5 L155 153.5 L154 153.5 L153 153.5 L152 153.5 L151 153.5 L150 153.5 L149 153.5 L148 153.5 L147 153.5 L146 153.5 L145 153.5 L144 153.5 L143 153.5 L142 153.5 L141 153.5 L140 153.5 L139 153.5 L138 153.5 L137 153.5 L136 153.5 L135 153.5 L134 153.5 L133 153.5 L132 153.5 L131 153.5 L130 153.5 L129 153.5 L128 153.5 L127 153.5 L126 153.5 L125 153.5 L124 153.5 L123 153.5 L122 153.5 L121 153.5 L120 153.5 L119 153.5 L118 153.5 L117 153.5 L116 153.5 L115 153.5 L114 153.5 L113 153.5 L112 153.5 L111 153.5 L110 153.5 L109 153.5 L108 153.5 L107 153.5 L106 153.5 L105 153.5 L104 153.5 L103 153.5 L102 153.5 L101 153.5 L100 153.5 L99 153.5 L98 153.5 L97 153.5 L96 153.5 L95 153.5 L94 153.5 L93 153.5 L92 153.5 L91 153.5 L90 153.5 L89 153.5 L88 153.5 L87 153.5 L86 153.5 L85 153.5 L84 153.5 L83 153.5 L82 153.5 L81 153.5 L80 153.5 L79 153.5 L78 153.5 L77 153.5 L76 153.5 L75 153.5 L74 153.5 L73 153.5 L72 153.5 L71 153.5 L70 153.5 L69 153.5 L68 153.5 L67 153.5 L66 153.5 L65 153.5 L64 153.5 L63 153.5 L62 153.5 L61 153.5 L60 153.5 L59 153.5 L58 153.5 L57 153.5 L56 153.5 L55 153.5 L54 153.5 L53 153.5 L52 153.5 L51 153.5 L50 153.5 L49 153.5 L48 153.5 L47 153.5 L46 153.5 L45 153.5 L44 153.5 L43 153.5 L42 153.5 L41 153.5 L40 153.5 L39 153.5 L38 153.5 L37 153.5 L36 153.5 L35 153.5 L34 153.5 L33 153.5 L32 153.5 L31 153.5 L30 153.5 L29 153.5 L28 153.5 L27 153.5 L26 153.5 L25 153.5 L24 153.5 L23 153.5 L22 153.5 L21 153.5 L20 153.5 L19 153.5 L18 153.5 L17.5 153 L17.5 152 L17.5 151 L17.5 150 L17.5 149 L17.5 148 L17.5 147 L17.5 146 L17.5 145 L17.5 144 L17.5 143 L17.5 142 L17.5 141 L17.5 140 L17.5 139 L17.5 138 L17.5 137 L17.5 136 L17.5 135 L17.5 134 L17.5 133 L17.5 132 L17.5 131 L17.5 130 L17.5 129 L17.5 128 L17.5 127 L17.5 126 L17.5 125 L17.5 124 L17.5 123 L17.5 122 L17.5 121 L17.5 120 L17.5 119 L17.5 118 L17.5 117 L17.5 116 L17.5 115 L17.5 114 L17.5 113 L17.5 112 L17.5 111 L17.5 110 L17.5 109 L17.5 108 L17.5 107 L17.5 106 L17.5 105 L17.5 104 L17.5 103 L17.5 102 L17.5 101 L17.5 100 L17.5 99 L17.5 98 L17.5 97 L17.5 96 L17.5 95 L17.5 94 L17.5 93 L17.5 92 L17.5 91 L17.5 90 L17.5 89 L17.5 88 L17.5 87 L17.5 86 L17.5 85 L17.5 84 L17.5 83 L17.5 82 L17.5 81 L17.5 80 L17.5 79 L17.5 78 L17.5 77 L17.5 76 L17.5 75 L17.5 74 L18 73.43 L18.43 73 L19 72.5 L20 72.5 L21 72.5 L22 72.5 L23 72.5 L24 72.5 L25 72.5 L26 72.5 L27 72.5 L28 72.5 L29 72.5 L30 72.5 L31 72.5 L32 72.5 L33 72.5 L34 72.5 L35 72.5 L36 72.5 L37 72.5 L38 72.5 L39 72.5 L40 72.5 L41 72.5 L42 72.5 L43 72.5 L44 72.5 L45 72.5 L46 72.5 L47 72.5 L48 72.5 L49 72.5 L50 72.5 L51 72.5 L52 72.5 L53 72.5 L54 72.5 L55 72.5 L56 72.5 L57 72.5 L58 72.5 L59 72.5 L60 72.5 L61 72.5 L62 72.5 L63 72.5 L64 72.5 L65 72.5 L66 72.5 L67 72.5 L68 72.5 L69 72.5 L70 72.5 L71 72.5 L72 72.5 L73 72.5 L74 72.5 L75 72.5 L76 72.5 L77 72.5 L78 72.5 L79 72.5 L80 72.5 L81 72.5 L82 72.5 L83 72.5 L84 72.5 L85 72.5 L86 72.5 L87 72.5 L88 72.5 L89 72.5 L90 72.5 L91 72.5 L92 72.5 L93 72.5 L94 72.5 L95 72.5 L96 72.5 L97 72.5 L98 72.5 L99 72.5 L100 72.5 L101 72.5 L102 72.5 L103 72.5 L104 72.5 L105 72.5 L106 72.5 L107 72.5 L108 72.5 L109 72.5 L110 72.5 L111 72.5 L112 72.5 L113 72.5 L114 72.5 L115 72.5 L116 72.5 L117 72.5 L118 72.5 L119 72.5 L120 72.5 L121 72.5 L122 72.5 L123 72.5 L124 72.5 L125 72.5 L126 72.5 L127 72.5 L128 72.5 L129 72.5 L130 72.5 L131 72.5 L132 72.5 L133 72.5 L134 72.5 L135 72.5 L136 72.5 L137 72.5 L138 72.5 L139 72.5 L140 72.5 L141 72.5 L142 72.5 L143 72.5 L144 72.5 L145 72.5 L146 72.5 L147 72.5 L148 72.5 L149 72.5 L150 72.5 L151 72.5 L152 72.5 L153 72.5 L154 72.5 L155 72.5 L156 72.5 L157 72.5 L158 72.5 L159 72.5 L160 72.5 L161 72.5 L162 72.5 L163 72.5 L164 72.5 L165 72.5 L166 72.5 L167 72.5 L168 72.5 L168.5 72 L169 71.5 L170 71.5 L171 71.5 L171.5 71 L172 70.5 L172.81 70 L173 69.81 L174 69.5 L174.5 69 L175 68.5 L175.5 68 L176 67.5 L176.5 67 L176.83 66 L177 65.83 L177.5 65 L178 64.5 L178.5 64 L178.5 63 L178.5 62 L178.76 61 L179 60.76 L179.5 60 L179.5 59 L179.5 58 L179.5 57 L179.5 56 L179.5 55 L179 54.5 L178.5 54 L178.5 53 L178.47 52 L178 51.53 L177.5 51 L177 50.5 L176.5 50 L176.45 49 L176 48.55 L175.5 48 L175 47.5 L174.25 47 L174 46.75 L173 46.5 L172.5 46 L172 45.5 L171 45.5 L170.5 45 L170 44.5 L169 44.5 L168 44.5 L167 44.33 L166.59 44 L166 43.58 L165 43.5 L164 43.5 L163 43.5 L162 43.5 L161 43.5 L160 43.5 L159 43.5 L158 43.5 L157 43.5 L156 43.5 L155 43.5 L154 43.5 L153 43.5 L152 43.5 L151 43.5 L150 43.5 L149 43.5 L148 43.5 L147 43.51 L146 43.51 L145 43.51 L144 43.51 L143 43.5 L142 43.5 L141 43.5 L140 43.5 L139 43.5 L138 43.5 L137 43.5 L136 43.5 L135 43.5 L134 43.5 L133 43.5 L132 43.5 L131 43.5 L130 43.5 L129 43.5 L128 43.5 L127 43.5 L126 43.5 L125 43.5 L124 43.5 L123 43.5 L122 43.5 L121 43.5 L120 43.5 L119 43.51 L118 43.51 L117 43.51 L116 43.51 L115 43.51 L114 43.54 L113 43.54 L112 43.54 L111 43.52 L110 43.52 L109 43.52 L108 43.52 L107 43.53 L106 43.53 L105 43.53 L104 43.53 L103 43.53 L102 43.53 L101 43.56 L100 43.56 L99 43.57 L98 43.57 L97 43.57 L96 43.57 L95 43.56 L94 43.58 L93 43.54 L92 43.55 L91 43.55 L90 43.55 L89 43.54 L88 43.56 L87 43.54 L86 43.54 L85 43.56 L84 43.56 L83 43.56 L82 43.56 L81 43.59 L80 43.59 L79 43.59 L78 43.59 L77 43.59 L76 43.59 L75 43.59 L74 43.59 L73 43.59 L72 43.56 L71 43.56 L70 43.56 L69 43.56 L68 43.56 L67 43.53 L66 43.53 L65 43.53 L64 43.53 L63 43.53 L62 43.53 L61 43.53 L60 43.52 L59 43.53 L58 43.53 L57 43.53 L56 43.55 L55 43.57 L54 43.59 L53 43.59 L52 43.6 L51 43.63 L50 43.65 L49 43.69 L48 43.69 L47 43.69 L46 43.7 L45 43.73 L44 43.75 L43 43.74 L42 43.7 L41 43.69 L40 43.59 L39 43.53 L38 43.5 L37 43.5 L36 43.5 L35.5 43 L35 42.5 L34.5 42 L34 41.5 L33.5 41 L33 40.5 L32.5 40 L32 39.45 L31.55 39 L31.04 38 L31 37.96 L30.4 37 L30 36.6 L29.46 36 L29 35.54 L28.5 35 L28 34.5 L27.5 34 L27 33.5 L26.5 33 L26 32.5 L25.5 32 L25 31.5 L24.5 31 L24 30.5 L23.5 30 L23 29.5 L22.5 29 L22.5 28 L22.5 27 L22.5 26 L22.5 25 L22.5 24 L22 23.5 L21.5 23 L21.5 22 L21.5 21 L21.5 20 L21.5 19 Z M515.5 19 L516 18.5 L517 18.5 L518 18.5 L519 18.5 L520 18.5 L521 18.5 L522 18.5 L523 18.5 L524 18.5 L525 18.5 L526 18.5 L527 18.5 L528 18.5 L529 18.5 L530 18.5 L531 18.5 L532 18.5 L533 18.5 L534 18.5 L535 18.5 L536 18.5 L537 18.5 L538 18.5 L539 18.5 L540 18.5 L541 18.5 L542 18.5 L543 18.5 L544 18.5 L545 18.5 L546 18.5 L547 18.5 L548 18.5 L549 18.5 L550 18.5 L550.5 19 L551 19.5 L551.5 20 L552 20.5 L552.5 21 L553 21.5 L553.5 22 L554 22.5 L554.5 23 L555 23.5 L555.5 24 L556 24.5 L556.5 25 L557 25.5 L557.5 26 L558 26.5 L558.5 27 L559 27.65 L559.35 28 L559.72 29 L560 29.28 L560.5 30 L561 30.5 L561.5 31 L562 31.5 L562.5 32 L563 32.5 L563.5 33 L564 33.5 L564.5 34 L565 34.5 L565.5 35 L566 35.5 L566.5 36 L567 36.5 L567.5 37 L568 37.5 L568.5 38 L569 38.5 L569.5 39 L570 39.64 L570.36 40 L571 40.94 L571.06 41 L571.5 42 L572 42.5 L572.5 43 L573 43.5 L573.5 44 L574 44.5 L574.5 45 L575 45.5 L575.5 46 L576 46.5 L576.5 47 L577 47.5 L577.5 48 L578 48.5 L578.5 49 L579 49.5 L579.5 50 L580 50.5 L580.5 51 L581 51.92 L581.08 52 L581.62 53 L582 53.38 L582.5 54 L583 54.5 L583.5 55 L584 55.5 L584.5 56 L585 56.5 L585.5 57 L586 57.5 L586.5 58 L587 58.5 L587.5 59 L588 59.5 L588.5 60 L589 60.5 L589.5 61 L590 61.5 L590.5 62 L591 62.9 L591.1 63 L591.5 64 L592 64.5 L592.5 65 L593 65.5 L593.5 66 L594 66.5 L594.5 67 L595 67.5 L595.5 68 L596 68.5 L596.5 69 L597 69.5 L597.5 70 L598 70.5 L598.5 71 L599 71.5 L599.5 72 L600 72.5 L600.5 73 L601 73.7 L601.3 74 L601.97 75 L602 75.03 L602.61 76 L603 76.39 L603.5 77 L604 77.5 L604.5 78 L605 78.5 L605.5 79 L606 79.5 L606.5 80 L607 80.5 L607.5 81 L608 81.5 L608.5 82 L609 82.5 L609.5 83 L610 83.5 L610.5 84 L611 84.5 L611.5 85 L612 85.5 L612.5 86 L612.97 87 L613 87.03 L613.5 88 L614 88.5 L614.5 89 L615 89.5 L615.5 90 L616 90.5 L616.5 91 L617 91.5 L617.5 92 L618 92.5 L618.5 93 L619 93.5 L619.5 94 L620 94.5 L620.5 95 L621 95.5 L621.5 96 L622 96.78 L622.22 97 L622.78 98 L623 98.22 L623.5 99 L623.5 100 L623 100.5 L622.5 101 L622 101.5 L621.5 102 L621 102.5 L620.5 103 L620.5 104 L620.5 105 L620.5 106 L620.5 107 L620.5 108 L620.5 109 L620.5 110 L620.5 111 L620.5 112 L620.5 113 L620.5 114 L620.5 115 L620.5 116 L620.5 117 L620.5 118 L620.5 119 L620.5 120 L620.5 121 L620.5 122 L620.5 123 L620.5 124 L620.5 125 L620.5 126 L620.5 127 L620.5 128 L620.5 129 L620.5 130 L620.5 131 L620.5 132 L620.5 133 L620.5 134 L620.5 135 L620.5 136 L620.5 137 L620.5 138 L620.5 139 L620.5 140 L620.5 141 L620.5 142 L620.5 143 L620.5 144 L620.5 145 L620.5 146 L620.5 147 L620.5 148 L620.5 149 L620.5 150 L620.5 151 L620.5 152 L620.5 153 L620 153.5 L619 153.5 L618 153.5 L617 153.5 L616 153.5 L615 153.5 L614 153.5 L613 153.5 L612 153.5 L611 153.5 L610 153.5 L609 153.5 L608 153.5 L607 153.5 L606 153.5 L605 153.5 L604 153.5 L603 153.5 L602 153.5 L601 153.5 L600 153.5 L599 153.5 L598 153.5 L597 153.5 L596 153.5 L595 153.5 L594.5 153 L594.46 152 L594.46 151 L594.48 150 L594.5 149 L594.5 148 L594.5 147 L594.5 146 L594.5 145 L594.5 144 L594.5 143 L594.5 142 L594.5 141 L594.5 140 L594.47 139 L594.46 138 L594.46 137 L594.47 136 L594.49 135 L594.49 134 L594.5 133 L594.5 132 L594.5 131 L594.5 130 L594.5 129 L594.5 128 L594.5 127 L594.49 126 L594.49 125 L594.5 124 L594.5 123 L594.47 122 L594.46 121 L594.46 120 L594.46 119 L594.46 118 L594.46 117 L594.47 116 L594.5 115 L594.5 114 L594.5 113 L594.5 112 L594.5 111 L594.5 110 L594.5 109 L594.5 108 L594.5 107 L594.5 106 L594.5 105 L594.5 104 L594 103.5 L593.5 103 L593 102.5 L592.5 102 L592 101.5 L591.5 101 L591 100.5 L590.5 100 L590 99.5 L589.5 99 L589 98.5 L588.5 98 L588 97.5 L587.5 97 L587 96.5 L586.5 96 L586 95.5 L585.5 95 L585 94.42 L584.58 94 L584.06 93 L584 92.94 L583.47 92 L583 91.53 L582.5 91 L582 90.5 L581.5 90 L581 89.5 L580.5 89 L580 88.5 L579.5 88 L579 87.5 L578.5 87 L578 86.5 L577.5 86 L577 85.5 L576.5 85 L576 84.5 L575.5 84 L575 83.5 L574.5 83 L574 82.22 L573.78 82 L573.23 81 L573 80.77 L572.5 80 L572 79.5 L571.5 79 L571 78.5 L570.5 78 L570 77.5 L569.5 77 L569 76.5 L568.5 76 L568 75.5 L567.5 75 L567 74.5 L566.5 74 L566 73.5 L565.5 73 L565 72.5 L564.5 72 L564 71.5 L563.5 71 L563 70.5 L562.5 70 L562 69.5 L561.5 69 L561 68.38 L560.62 68 L560.37 67 L560 66.63 L559.5 66 L559 65.5 L558.5 65 L558 64.5 L557.5 64 L557 63.5 L556.5 63 L556 62.5 L555.5 62 L555 61.5 L554.5 61 L554 60.5 L553.5 60 L553 59.5 L552.5 59 L552 58.5 L551.5 58 L551 57.5 L550.5 57 L550 56.5 L549.5 56 L549 55.5 L548.5 55 L548 54.28 L547.72 54 L547.3 53 L547 52.7 L546.46 52 L546 51.54 L545.5 51 L545 50.5 L544.5 50 L544 49.5 L543.5 49 L543 48.5 L542.5 48 L542 47.5 L541.5 47 L541 46.5 L540.5 46 L540 45.5 L539.5 45 L539 44.5 L538.5 44 L538 43.5 L537.5 43 L537 42.5 L536.5 42 L536 41.5 L535.5 41 L535 40.5 L534.5 40 L534 39.49 L533.51 39 L533 38.1 L532.9 38 L532.4 37 L532 36.6 L531.5 36 L531 35.5 L530.5 35 L530 34.5 L529.5 34 L529 33.5 L528.5 33 L528 32.5 L527.5 32 L527 31.5 L526.5 31 L526 30.5 L525.5 30 L525 29.5 L524.5 29 L524 28.5 L523.5 28 L523 27.5 L522.5 27 L522 26.25 L521.75 26 L521.11 25 L521 24.89 L520.45 24 L520 23.55 L519.5 23 L519 22.5 L518.5 22 L518 21.5 L517.5 21 L517 20.5 L516.5 20 L516 19.5 L515.5 19 Z M694.5 19 L695 18.5 L695.5 19 L695 19.5 L694.5 19 Z M763.5 19 L764 18.5 L765 18.5 L766 18.5 L767 18.5 L768 18.5 L769 18.5 L770 18.5 L771 18.5 L772 18.5 L773 18.5 L774 18.5 L775 18.5 L776 18.5 L777 18.5 L778 18.5 L779 18.5 L780 18.5 L781 18.5 L782 18.5 L783 18.5 L784 18.5 L785 18.5 L786 18.5 L787 18.5 L788 18.5 L789 18.5 L790 18.5 L791 18.5 L792 18.5 L793 18.5 L794 18.5 L795 18.5 L796 18.5 L797 18.5 L798 18.5 L799 18.5 L800 18.5 L801 18.5 L802 18.5 L803 18.5 L804 18.5 L805 18.5 L806 18.5 L807 18.5 L808 18.5 L809 18.5 L810 18.5 L811 18.5 L812 18.5 L813 18.5 L814 18.5 L815 18.5 L816 18.5 L817 18.5 L818 18.5 L819 18.5 L820 18.5 L821 18.5 L822 18.5 L823 18.5 L824 18.5 L825 18.5 L826 18.5 L827 18.5 L828 18.5 L829 18.5 L830 18.5 L831 18.5 L832 18.5 L833 18.5 L834 18.5 L835 18.5 L836 18.5 L837 18.5 L838 18.5 L839 18.5 L840 18.5 L841 18.5 L842 18.5 L843 18.5 L844 18.5 L845 18.5 L846 18.5 L847 18.5 L848 18.5 L849 18.5 L850 18.5 L851 18.5 L852 18.5 L853 18.5 L854 18.5 L855 18.5 L856 18.5 L857 18.5 L858 18.5 L859 18.5 L860 18.5 L861 18.5 L862 18.5 L863 18.5 L864 18.5 L865 18.5 L866 18.5 L867 18.5 L868 18.5 L869 18.5 L870 18.5 L871 18.5 L872 18.5 L873 18.5 L874 18.5 L875 18.5 L876 18.5 L877 18.5 L878 18.5 L879 18.5 L880 18.5 L881 18.5 L882 18.5 L883 18.5 L884 18.5 L885 18.5 L886 18.5 L887 18.5 L888 18.5 L889 18.5 L890 18.5 L891 18.5 L892 18.5 L893 18.5 L894 18.5 L895 18.5 L896 18.5 L897 18.5 L898 18.5 L899 18.5 L900 18.5 L901 18.5 L902 18.5 L903 18.5 L904 18.49 L905 18.49 L906 18.49 L907 18.5 L908 18.47 L909 18.45 L910 18.45 L911 18.46 L912 18.49 L913 18.5 L914 18.5 L915 18.5 L916 18.87 L916.13 19 L916.5 20 L916.34 21 L916.22 22 L916.13 23 L916 24 L916.03 25 L916.11 26 L916.17 27 L916.34 28 L916.48 29 L916.5 30 L916.5 31 L916.5 32 L916.5 33 L916.5 34 L916.5 35 L916.46 36 L916.44 37 L916.39 38 L916.33 39 L916.27 40 L916.22 41 L916.38 42 L916 42.52 L915.64 43 L915 43.61 L914 43.61 L913 43.58 L912 43.57 L911 43.53 L910 43.54 L909 43.53 L908 43.52 L907 43.52 L906 43.5 L905 43.5 L904 43.5 L903 43.5 L902 43.5 L901 43.5 L900 43.5 L899 43.5 L898 43.5 L897 43.5 L896 43.5 L895 43.5 L894 43.5 L893 43.5 L892 43.51 L891 43.51 L890 43.51 L889 43.52 L888 43.53 L887 43.53 L886 43.53 L885 43.53 L884 43.51 L883 43.5 L882 43.5 L881 43.5 L880 43.5 L879 43.5 L878 43.5 L877 43.5 L876 43.5 L875 43.5 L874 43.5 L873 43.5 L872 43.5 L871 43.5 L870 43.5 L869 43.51 L868 43.51 L867 43.54 L866 43.54 L865 43.57 L864 43.57 L863 43.59 L862 43.59 L861 43.59 L860 43.59 L859 43.59 L858 43.59 L857 43.6 L856 43.66 L855 43.73 L854 43.8 L853 43.77 L852 43.87 L851 43.5 L850.5 44 L850 44.63 L849.63 45 L850 45.61 L850.28 46 L850.11 47 L850.13 48 L850.23 49 L850.26 50 L850.21 51 L850.16 52 L850.07 53 L850 53.33 L849.87 54 L849.77 55 L849.77 56 L849.78 57 L849.77 58 L849.81 59 L849.89 60 L849.96 61 L849.97 62 L849.97 63 L850 63.44 L850.03 64 L850.11 65 L850.09 66 L850.09 67 L850.07 68 L850 68.63 L849.96 69 L849.96 70 L849.96 71 L849.96 72 L849.89 73 L849.83 74 L849.76 75 L849.68 76 L849.64 77 L849.62 78 L849.62 79 L849.62 80 L849.66 81 L849.72 82 L849.81 83 L849.84 84 L849.9 85 L849.95 86 L849.9 87 L849.9 88 L849.93 89 L849.89 90 L849.84 91 L849.81 92 L849.81 93 L849.81 94 L849.81 95 L849.83 96 L849.89 97 L849.89 98 L849.89 99 L849.84 100 L849.86 101 L849.9 102 L849.9 103 L849.9 104 L849.96 105 L850 105.55 L850.03 106 L850.16 107 L850.21 108 L850.23 109 L850.26 110 L850.22 111 L850.21 112 L850.15 113 L850 114 L850 114.21 L849.96 115 L849.96 116 L849.82 117 L849.77 118 L849.72 119 L849.68 120 L849.65 121 L849.64 122 L849.61 123 L849.58 124 L849.58 125 L849.58 126 L849.58 127 L849.61 128 L849.64 129 L849.68 130 L849.76 131 L849.77 132 L849.72 133 L849.69 134 L849.68 135 L849.67 136 L849.61 137 L849.58 138 L849.58 139 L849.58 140 L849.57 141 L849.54 142 L849.5 143 L849.5 144 L849.5 145 L849.5 146 L849.5 147 L849.5 148 L849.5 149 L849.5 150 L849.5 151 L849.58 152 L849.5 153 L849 153.5 L848 153.5 L847 153.52 L846 153.51 L845 153.5 L844 153.5 L843 153.5 L842 153.5 L841 153.5 L840 153.5 L839 153.5 L838 153.5 L837 153.5 L836 153.5 L835 153.5 L834 153.5 L833 153.5 L832 153.5 L831 153.5 L830 153.5 L829 153.5 L828 153.5 L827 153.5 L826 153.5 L825 153.5 L824.5 153 L824.5 152 L824.5 151 L824.5 150 L824.5 149 L824.5 148 L824.5 147 L824.5 146 L824.5 145 L824.5 144 L824.5 143 L824.5 142 L824.5 141 L824.5 140 L824.5 139 L824.5 138 L824.5 137 L824.5 136 L824.5 135 L824.5 134 L824.5 133 L824.5 132 L824.5 131 L824.5 130 L824.5 129 L824.5 128 L824.5 127 L824.5 126 L824.5 125 L824.5 124 L824.5 123 L824.5 122 L824.5 121 L824.5 120 L824.5 119 L824.5 118 L824.5 117 L824.5 116 L824.5 115 L824.5 114 L824.5 113 L824.5 112 L824.5 111 L824.5 110 L824.5 109 L824.5 108 L824.5 107 L824.5 106 L824.5 105 L824.5 104 L824.5 103 L824.5 102 L824.5 101 L824.5 100 L824.5 99 L824.5 98 L824.5 97 L824.5 96 L824.5 95 L824.5 94 L824.5 93 L824.5 92 L824.5 91 L824.5 90 L824.5 89 L824.5 88 L824.5 87 L824.5 86 L824.5 85 L824.5 84 L824.5 83 L824.5 82 L824.5 81 L824.5 80 L824.5 79 L824.5 78 L824.5 77 L824.5 76 L824.5 75 L824.5 74 L824.5 73 L824.5 72 L824.5 71 L824.5 70 L824.5 69 L824.5 68 L824.5 67 L824.5 66 L824.5 65 L824.5 64 L824.5 63 L824.5 62 L824.5 61 L824.5 60 L824.5 59 L824.5 58 L824.5 57 L824.5 56 L824.5 55 L824.5 54 L824.5 53 L824.5 52 L824.5 51 L824.5 50 L824.5 49 L824.5 48 L824.5 47 L824.5 46 L824.5 45 L824.5 44 L824 43.5 L823 43.6 L822 43.5 L821 43.5 L820 43.5 L819 43.5 L818 43.5 L817 43.5 L816 43.5 L815 43.5 L814 43.5 L813 43.5 L812 43.5 L811 43.5 L810 43.5 L809 43.5 L808 43.5 L807 43.5 L806 43.5 L805 43.5 L804 43.5 L803 43.5 L802 43.5 L801 43.5 L800 43.5 L799 43.5 L798 43.5 L797 43.5 L796 43.5 L795 43.5 L794 43.5 L793 43.5 L792 43.5 L791 43.5 L790 43.5 L789 43.5 L788 43.53 L787 43.53 L786 43.54 L785 43.56 L784 43.57 L783 43.57 L782 43.57 L781 43.57 L780 43.57 L779 43.59 L778 43.59 L777 43.59 L776 43.59 L775 43.56 L774 43.56 L773 43.53 L772 43.51 L771 43.5 L770 43.5 L769 43.5 L768 43.5 L767 43.5 L766 43.5 L765 43.51 L764 43.5 L763.5 43 L763.5 42 L763.5 41 L763.5 40 L763.5 39 L763.5 38 L763.5 37 L763.5 36 L763.5 35 L763.5 34 L763.5 33 L763.5 32 L763.5 31 L763.5 30 L763.5 29 L763.5 28 L763.5 27 L763.5 26 L763.5 25 L763.5 24 L763.5 23 L763.5 22 L763.5 21 L763.5 20 L763.5 19 Z M990.5 19 L991 18.5 L992 18.5 L993 18.5 L994 18.5 L995 18.5 L996 18.5 L997 18.5 L998 18.5 L999 18.5 L1000 18.5 L1001 18.5 L1002 18.5 L1003 18.5 L1004 18.49 L1005 18.48 L1006 18.47 L1007 18.47 L1008 18.48 L1009 18.48 L1010 18.5 L1011 18.5 L1012 18.5 L1013 18.5 L1014 18.5 L1015 18.5 L1016 18.5 L1017 18.5 L1018 18.5 L1019 18.5 L1020 18.5 L1021 18.5 L1022 18.5 L1023 18.5 L1024 18.5 L1025 18.5 L1026 18.5 L1027 18.5 L1028 18.5 L1029 18.5 L1030 18.5 L1031 18.5 L1032 18.5 L1033 18.5 L1034 18.5 L1035 18.5 L1036 18.5 L1037 18.5 L1038 18.5 L1039 18.5 L1040 18.5 L1041 18.5 L1042 18.5 L1043 18.5 L1044 18.5 L1045 18.5 L1046 18.5 L1047 18.5 L1048 18.5 L1049 18.5 L1050 18.5 L1051 18.5 L1052 18.5 L1053 18.5 L1054 18.5 L1055 18.5 L1056 18.5 L1057 18.5 L1058 18.5 L1059 18.5 L1060 18.5 L1061 18.5 L1062 18.5 L1063 18.5 L1064 18.5 L1065 18.5 L1066 18.5 L1067 18.5 L1068 18.5 L1069 18.5 L1070 18.5 L1071 18.5 L1072 18.5 L1073 18.5 L1074 18.5 L1075 18.5 L1076 18.5 L1077 18.5 L1078 18.5 L1079 18.5 L1080 18.5 L1081 18.5 L1082 18.5 L1083 18.5 L1084 18.5 L1085 18.5 L1086 18.5 L1087 18.5 L1088 18.5 L1089 18.5 L1090 18.5 L1091 18.5 L1092 18.5 L1093 18.5 L1094 18.5 L1095 18.5 L1096 18.5 L1097 18.5 L1098 18.5 L1099 18.5 L1100 18.5 L1101 18.5 L1102 18.5 L1103 18.5 L1104 18.5 L1105 18.5 L1106 18.5 L1107 18.5 L1108 18.5 L1109 18.5 L1110 18.5 L1111 18.5 L1112 18.5 L1113 18.5 L1114 18.5 L1115 18.5 L1116 18.5 L1117 18.5 L1118 18.5 L1119 18.5 L1120 18.5 L1121 18.5 L1122 18.5 L1123 18.5 L1124 18.5 L1125 18.5 L1126 18.5 L1127 18.5 L1128 18.5 L1129 18.5 L1130 18.5 L1131 18.5 L1132 18.5 L1133 18.5 L1134 18.5 L1135 18.5 L1136 18.5 L1137 18.5 L1138 18.5 L1139 18.5 L1140 18.5 L1141 18.5 L1142 18.5 L1142.5 19 L1142.5 20 L1142.5 21 L1142.5 22 L1142.5 23 L1142.5 24 L1142.5 25 L1142.5 26 L1142.5 27 L1142.5 28 L1142.5 29 L1142.5 30 L1142.5 31 L1142.5 32 L1142.5 33 L1142.5 34 L1142.5 35 L1142.5 36 L1142.54 37 L1142.56 38 L1142.5 39 L1142.5 40 L1142.5 41 L1142.5 42 L1142.5 43 L1142 43.5 L1141 43.54 L1140 43.5 L1139 43.5 L1138 43.5 L1137 43.5 L1136 43.5 L1135 43.5 L1134 43.5 L1133 43.53 L1132 43.54 L1131 43.54 L1130 43.56 L1129 43.56 L1128 43.56 L1127 43.56 L1126 43.56 L1125 43.56 L1124 43.56 L1123 43.54 L1122 43.53 L1121 43.54 L1120 43.52 L1119 43.51 L1118 43.51 L1117 43.51 L1116 43.51 L1115 43.51 L1114 43.51 L1113 43.51 L1112 43.52 L1111 43.52 L1110 43.52 L1109 43.52 L1108 43.54 L1107 43.54 L1106 43.54 L1105 43.54 L1104 43.55 L1103 43.55 L1102 43.54 L1101 43.54 L1100 43.54 L1099 43.53 L1098 43.53 L1097 43.53 L1096 43.53 L1095 43.53 L1094 43.53 L1093 43.5 L1092 43.5 L1091 43.5 L1090 43.5 L1089 43.5 L1088 43.5 L1087 43.5 L1086 43.5 L1085 43.5 L1084 43.5 L1083 43.5 L1082 43.5 L1081 43.5 L1080 43.5 L1079 43.51 L1078 43.53 L1077 43.53 L1076 43.53 L1075 43.53 L1074 43.54 L1073 43.54 L1072 43.54 L1071 43.54 L1070 43.54 L1069 43.53 L1068 43.53 L1067 43.53 L1066 43.53 L1065 43.53 L1064 43.53 L1063 43.53 L1062 43.54 L1061 43.54 L1060 43.54 L1059 43.54 L1058 43.54 L1057 43.53 L1056 43.53 L1055 43.53 L1054 43.53 L1053 43.53 L1052 43.53 L1051 43.54 L1050 43.54 L1049 43.54 L1048 43.54 L1047 43.54 L1046 43.52 L1045 43.52 L1044 43.52 L1043 43.52 L1042 43.51 L1041 43.5 L1040 43.5 L1039 43.5 L1038 43.5 L1037 43.5 L1036 43.5 L1035 43.51 L1034 43.5 L1033 43.5 L1032 43.5 L1031 43.51 L1030 43.51 L1029 43.5 L1028 43.51 L1027 43.51 L1026 43.51 L1025 43.51 L1024 43.51 L1023 43.51 L1022 43.51 L1021 43.5 L1020 43.5 L1019 43.51 L1018 43.51 L1017 43.53 L1016 43.54 L1015 43.56 L1014 43.58 L1013 43.59 L1012 43.62 L1011 43.64 L1010 43.65 L1009 43.65 L1008 43.63 L1007 43.62 L1006 43.59 L1005 43.56 L1004 43.56 L1003 43.54 L1002 43.53 L1001 43.5 L1000 43.5 L999 43.5 L998 43.5 L997 43.5 L996 43.5 L995 43.5 L994 43.5 L993 43.5 L992 43.5 L991 43.5 L990.5 43 L990.5 42 L990.5 41 L990.5 40 L990.5 39 L990.5 38 L990.5 37 L990.5 36 L990.5 35 L990.5 34 L990.5 33 L990.5 32 L990.5 31 L990.5 30 L990.5 29 L990.5 28 L990.5 27 L990.5 26 L990.5 25 L990.5 24 L990.5 23 L990.5 22 L990.5 21 L990.5 20 L990.5 19 Z M1271.5 19 L1272 18.5 L1273 18.5 L1274 18.5 L1275 18.5 L1276 18.5 L1277 18.5 L1278 18.5 L1279 18.5 L1280 18.5 L1281 18.5 L1282 18.5 L1283 18.5 L1284 18.5 L1285 18.5 L1286 18.5 L1287 18.5 L1288 18.5 L1289 18.5 L1290 18.5 L1291 18.5 L1292 18.5 L1293 18.5 L1294 18.5 L1295 18.5 L1296 18.5 L1297 18.5 L1298 18.5 L1299 18.5 L1300 18.5 L1301 18.5 L1302 18.5 L1303 18.5 L1304 18.5 L1305 18.5 L1306 18.5 L1307 18.5 L1308 18.5 L1309 18.5 L1310 18.5 L1311 18.5 L1312 18.5 L1313 18.5 L1314 18.5 L1315 18.5 L1316 18.5 L1317 18.5 L1318 18.5 L1319 18.5 L1320 18.5 L1321 18.5 L1322 18.5 L1323 18.5 L1324 18.5 L1325 18.5 L1326 18.5 L1327 18.5 L1328 18.5 L1329 18.5 L1330 18.5 L1331 18.5 L1332 18.5 L1333 18.5 L1334 18.5 L1335 18.5 L1336 18.5 L1337 18.5 L1338 18.5 L1339 18.5 L1340 18.5 L1341 18.5 L1342 18.5 L1343 18.5 L1344 18.5 L1345 18.5 L1346 18.5 L1347 18.5 L1348 18.5 L1349 18.5 L1350 18.5 L1351 18.5 L1352 18.5 L1353 18.5 L1354 18.5 L1355 18.5 L1356 18.5 L1357 18.5 L1358 18.5 L1359 18.5 L1360 18.5 L1361 18.5 L1362 18.5 L1363 18.5 L1364 18.5 L1365 18.5 L1366 18.5 L1367 18.5 L1368 18.5 L1369 18.5 L1370 18.5 L1370.5 19 L1370.5 20 L1370.5 21 L1370.5 22 L1370.5 23 L1370.5 24 L1370.5 25 L1370.5 26 L1370.5 27 L1370.5 28 L1370.5 29 L1370.5 30 L1370.5 31 L1370.5 32 L1370.5 33 L1370.5 34 L1370.5 35 L1370.5 36 L1370.5 37 L1370.5 38 L1370.5 39 L1370.5 40 L1370.5 41 L1370.5 42 L1370 42.88 L1369.88 43 L1369 43.5 L1368 43.5 L1367 43.5 L1366 43.5 L1365 43.5 L1364 43.5 L1363 43.5 L1362 43.5 L1361 43.5 L1360 43.5 L1359 43.5 L1358 43.51 L1357 43.53 L1356 43.55 L1355 43.57 L1354 43.59 L1353 43.59 L1352 43.6 L1351 43.61 L1350 43.61 L1349 43.61 L1348 43.59 L1347 43.59 L1346 43.56 L1345 43.53 L1344 43.53 L1343 43.51 L1342 43.5 L1341 43.5 L1340 43.5 L1339 43.5 L1338 43.5 L1337 43.5 L1336 43.5 L1335 43.5 L1334 43.5 L1333 43.5 L1332 43.5 L1331 43.5 L1330 43.5 L1329 43.5 L1328 43.51 L1327 43.51 L1326 43.51 L1325 43.51 L1324 43.51 L1323 43.52 L1322 43.54 L1321 43.54 L1320 43.56 L1319 43.57 L1318 43.56 L1317 43.56 L1316 43.54 L1315 43.54 L1314 43.54 L1313 43.52 L1312 43.52 L1311 43.52 L1310 43.5 L1309 43.5 L1308 43.5 L1307 43.5 L1306 43.51 L1305 43.51 L1304 43.52 L1303 43.52 L1302 43.5 L1301 43.5 L1300 43.5 L1299 43.5 L1298 43.5 L1297 43.5 L1296 43.5 L1295 43.5 L1294 43.5 L1293 43.5 L1292 43.5 L1291 43.5 L1290 43.5 L1289 43.5 L1288 43.5 L1287 43.5 L1286 43.5 L1285 43.5 L1284 43.5 L1283 43.5 L1282 43.5 L1281 43.51 L1280 43.59 L1279 43.83 L1278.65 44 L1278 44.28 L1277 44.5 L1276 44.5 L1275 44.5 L1274 44.5 L1273 44.5 L1272 44.92 L1271.92 45 L1271 45.5 L1270 45.5 L1269 45.5 L1268.5 46 L1268 46.5 L1267 46.5 L1266 46.84 L1265.84 47 L1265 47.5 L1264 47.52 L1263.52 48 L1263 48.5 L1262 48.5 L1261.5 49 L1261 49.5 L1260 49.98 L1259.98 50 L1259 50.5 L1258.5 51 L1258 51.5 L1257 51.89 L1256.89 52 L1256 52.5 L1255.5 53 L1255 53.5 L1254.5 54 L1254 54.5 L1253.5 55 L1253 55.5 L1252.5 56 L1252 56.5 L1251.5 57 L1251 57.5 L1250.5 58 L1250 58.59 L1249.59 59 L1249.5 60 L1249 60.5 L1248.5 61 L1248 61.5 L1247.5 62 L1247.5 63 L1247 63.5 L1246.5 64 L1246 64.84 L1245.84 65 L1245.5 66 L1245.28 67 L1245 67.28 L1244.5 68 L1244.5 69 L1244 69.5 L1243.5 70 L1243.5 71 L1243.5 72 L1243 72.5 L1242.5 73 L1242.5 74 L1242.5 75 L1242.5 76 L1242 76.69 L1241.69 77 L1241.5 78 L1241.5 79 L1241.5 80 L1241.5 81 L1241.5 82 L1241.5 83 L1241.5 84 L1241.5 85 L1241.5 86 L1241.5 87 L1241.5 88 L1241.5 89 L1241.5 90 L1241.5 91 L1241.5 92 L1241.5 93 L1241.5 94 L1241.5 95 L1242 95.7 L1242.3 96 L1242.5 97 L1242.5 98 L1242.5 99 L1243 99.63 L1243.37 100 L1243.5 101 L1243.5 102 L1244 102.56 L1244.44 103 L1244.5 104 L1244.58 105 L1245 105.42 L1245.5 106 L1245.5 107 L1246 107.5 L1246.5 108 L1246.5 109 L1247 109.5 L1247.5 110 L1248 110.55 L1248.45 111 L1248.5 112 L1249 112.5 L1249.5 113 L1250 113.5 L1250.5 114 L1251 114.5 L1251.5 115 L1252 115.5 L1252.5 116 L1253 116.5 L1253.5 117 L1254 117.5 L1254.5 118 L1255 118.5 L1255.5 119 L1256 119.5 L1256.5 120 L1257 120.5 L1258 120.5 L1258.5 121 L1259 121.5 L1259.5 122 L1260 122.5 L1261 122.5 L1261.5 123 L1262 123.5 L1263 123.5 L1263.5 124 L1264 124.5 L1265 124.5 L1265.76 125 L1266 125.24 L1267 125.5 L1268 125.5 L1268.69 126 L1269 126.31 L1270 126.5 L1271 126.5 L1272 126.5 L1272.78 127 L1273 127.22 L1274 127.5 L1275 127.5 L1276 127.5 L1277 127.5 L1278 127.5 L1279 127.5 L1280 127.5 L1281 127.5 L1282 127.5 L1283 127.5 L1284 127.5 L1285 127.5 L1286 127.5 L1287 127.5 L1288 127.5 L1289 127.5 L1290 127.5 L1291 127.5 L1292 127.5 L1293 127.5 L1294 127.5 L1295 127.5 L1296 127.5 L1297 127.5 L1298 127.5 L1299 127.5 L1300 127.5 L1301 127.5 L1302 127.5 L1303 127.5 L1304 127.5 L1305 127.5 L1306 127.5 L1307 127.5 L1308 127.5 L1309 127.5 L1310 127.5 L1311 127.5 L1312 127.5 L1313 127.5 L1314 127.5 L1315 127.5 L1316 127.5 L1317 127.5 L1318 127.5 L1319 127.5 L1320 127.5 L1321 127.5 L1322 127.5 L1323 127.5 L1324 127.5 L1325 127.5 L1326 127.5 L1327 127.5 L1328 127.5 L1329 127.5 L1330 127.5 L1331 127.5 L1332 127.5 L1333 127.5 L1334 127.5 L1335 127.5 L1336 127.5 L1337 127.5 L1338 127.5 L1339 127.5 L1340 127.5 L1341 127.5 L1342 127.5 L1343 127.5 L1344 127.5 L1345 127.5 L1346 127.5 L1347 127.5 L1348 127.5 L1349 127.5 L1350 127.5 L1351 127.5 L1352 127.5 L1353 127.5 L1354 127.5 L1355 127.5 L1356 127.5 L1357 127.5 L1358 127.5 L1359 127.5 L1360 127.5 L1361 127.5 L1362 127.5 L1363 127.5 L1364 127.5 L1365 127.5 L1366 127.5 L1367 127.5 L1368 127.5 L1369 127.5 L1369.5 128 L1370 128.5 L1370.5 129 L1370.5 130 L1370.5 131 L1370.5 132 L1370.5 133 L1370.5 134 L1370.5 135 L1370.5 136 L1370.5 137 L1370.5 138 L1370.5 139 L1370.5 140 L1370.5 141 L1370.5 142 L1370.5 143 L1370.5 144 L1370.5 145 L1370.5 146 L1370.5 147 L1370.5 148 L1370.5 149 L1370.5 150 L1370.5 151 L1370.5 152 L1370.5 153 L1370 153.5 L1369 153.5 L1368 153.5 L1367 153.5 L1366 153.5 L1365 153.5 L1364 153.5 L1363 153.5 L1362 153.5 L1361 153.5 L1360 153.5 L1359 153.5 L1358 153.5 L1357 153.5 L1356 153.5 L1355 153.5 L1354 153.5 L1353 153.5 L1352 153.5 L1351 153.5 L1350 153.5 L1349 153.5 L1348 153.5 L1347 153.5 L1346 153.5 L1345 153.5 L1344 153.5 L1343 153.5 L1342 153.5 L1341 153.5 L1340 153.5 L1339 153.5 L1338 153.5 L1337 153.5 L1336 153.5 L1335 153.5 L1334 153.5 L1333 153.5 L1332 153.5 L1331 153.5 L1330 153.5 L1329 153.5 L1328 153.5 L1327 153.5 L1326 153.5 L1325 153.5 L1324 153.5 L1323 153.5 L1322 153.5 L1321 153.5 L1320 153.5 L1319 153.5 L1318 153.5 L1317 153.5 L1316 153.5 L1315 153.5 L1314 153.5 L1313 153.5 L1312 153.5 L1311 153.5 L1310 153.5 L1309 153.5 L1308 153.5 L1307 153.5 L1306 153.5 L1305 153.5 L1304 153.5 L1303 153.5 L1302 153.5 L1301 153.5 L1300 153.5 L1299 153.5 L1298 153.5 L1297 153.5 L1296 153.5 L1295 153.5 L1294 153.5 L1293 153.5 L1292 153.5 L1291 153.5 L1290 153.5 L1289 153.5 L1288 153.5 L1287 153.5 L1286 153.5 L1285 153.5 L1284 153.5 L1283 153.5 L1282 153.5 L1281 153.5 L1280 153.5 L1279 153.5 L1278 153.5 L1277 153.5 L1276 153.5 L1275 153.5 L1274 153.5 L1273 153.5 L1272 153.43 L1271.57 153 L1271 152.5 L1270 152.5 L1269 152.5 L1268 152.5 L1267 152.5 L1266.5 152 L1266 151.5 L1265 151.5 L1264 151.5 L1263 151.5 L1262.5 151 L1262 150.5 L1261 150.5 L1260 150.5 L1259.5 150 L1259 149.5 L1258 149.5 L1257 149.5 L1256.5 149 L1256 148.5 L1255 148.5 L1254.5 148 L1254 147.5 L1253 147.5 L1252.5 147 L1252 146.5 L1251 146.5 L1250.5 146 L1250 145.5 L1249 145.5 L1248.5 145 L1248 144.5 L1247 144.5 L1246.5 144 L1246 143.5 L1245.5 143 L1245 142.5 L1244 142.5 L1243.5 142 L1243 141.5 L1242.5 141 L1242 140.5 L1241 140.37 L1240.63 140 L1240 139.5 L1239.5 139 L1239 138.5 L1238.5 138 L1238 137.5 L1237.5 137 L1237 136.5 L1236.5 136 L1236 135.5 L1235.5 135 L1235 134.5 L1234.5 134 L1234 133.5 L1233.5 133 L1233 132.5 L1232.5 132 L1232 131.5 L1231.5 131 L1231 130.5 L1230.5 130 L1230 129.19 L1229.81 129 L1229.5 128 L1229 127.5 L1228.5 127 L1228 126.5 L1227.5 126 L1227.5 125 L1227 124.5 L1226.5 124 L1226 123.5 L1225.5 123 L1225.5 122 L1225 121.5 L1224.5 121 L1224.41 120 L1224 119.59 L1223.5 119 L1223.15 118 L1223 117.85 L1222.5 117 L1222.5 116 L1222 115.5 L1221.5 115 L1221.5 114 L1221 113.5 L1220.5 113 L1220.5 112 L1220.29 111 L1220 110.71 L1219.5 110 L1219.5 109 L1219.5 108 L1219 107.5 L1218.5 107 L1218.5 106 L1218.5 105 L1218.24 104 L1218 103.76 L1217.5 103 L1217.5 102 L1217.5 101 L1217.5 100 L1217.5 99 L1217 98.34 L1216.66 98 L1216.5 97 L1216.5 96 L1216.5 95 L1216.5 94 L1216.5 93 L1216.5 92 L1216.5 91 L1216.5 90 L1216.5 89 L1216.5 88 L1216.5 87 L1216.5 86 L1216.5 85 L1216.5 84 L1216.5 83 L1216.5 82 L1216.5 81 L1216.5 80 L1216.5 79 L1216.5 78 L1216.5 77 L1216.5 76 L1216.92 75 L1217 74.92 L1217.5 74 L1217.5 73 L1217.5 72 L1217.5 71 L1217.5 70 L1217.79 69 L1218 68.79 L1218.5 68 L1218.5 67 L1218.5 66 L1219 65.5 L1219.5 65 L1219.5 64 L1219.5 63 L1219.5 62 L1220 61.5 L1220.5 61 L1220.5 60 L1221 59.22 L1221.22 59 L1221.5 58 L1221.5 57 L1222 56.5 L1222.5 56 L1222.5 55 L1223 54.5 L1223.5 54 L1223.5 53 L1224 52.5 L1224.5 52 L1224.55 51 L1225 50.55 L1225.5 50 L1226 49.5 L1226.5 49 L1226.5 48 L1227 47.5 L1227.5 47 L1228 46.5 L1228.5 46 L1228.5 45 L1229 44.5 L1229.5 44 L1230 43.5 L1230.5 43 L1231 42.5 L1231.5 42 L1232 41.42 L1232.42 41 L1232.5 40 L1233 39.5 L1233.5 39 L1234 38.5 L1234.5 38 L1235 37.5 L1235.5 37 L1236 36.5 L1236.5 36 L1237 35.5 L1237.5 35 L1238 34.5 L1238.5 34 L1239 33.5 L1240 33.5 L1240.5 33 L1241 32.5 L1241.5 32 L1242 31.5 L1242.5 31 L1243 30.5 L1243.84 30 L1244 29.84 L1245 29.5 L1245.5 29 L1246 28.5 L1247 28.03 L1247.03 28 L1248 27.5 L1248.5 27 L1249 26.5 L1250 26.5 L1250.5 26 L1251 25.5 L1252 25.5 L1252.5 25 L1253 24.5 L1254 24.5 L1254.5 24 L1255 23.5 L1256 23.5 L1256.54 23 L1257 22.54 L1258 22.5 L1259 22.5 L1259.5 22 L1260 21.5 L1261 21.5 L1262 21.5 L1262.5 21 L1263 20.5 L1264 20.5 L1265 20.5 L1266 20.5 L1266.5 20 L1267 19.5 L1268 19.5 L1269 19.5 L1270 19.5 L1271 19.5 L1271.5 19 Z M1454.5 19 L1455 18.5 L1456 18.5 L1457 18.5 L1458 18.5 L1459 18.5 L1460 18.5 L1461 18.5 L1462 18.5 L1463 18.5 L1464 18.5 L1465 18.5 L1466 18.5 L1467 18.5 L1468 18.5 L1469 18.5 L1470 18.5 L1471 18.5 L1472 18.5 L1473 18.5 L1474 18.5 L1475 18.5 L1476 18.5 L1477 18.5 L1478 18.5 L1479 18.66 L1479.34 19 L1479.5 20 L1479.5 21 L1479.5 22 L1479.5 23 L1479.5 24 L1479.5 25 L1479.5 26 L1479.5 27 L1479.5 28 L1479.5 29 L1479.5 30 L1479.5 31 L1479.5 32 L1479.5 33 L1479.5 34 L1479.5 35 L1479.5 36 L1479.5 37 L1479.5 38 L1479.5 39 L1479.5 40 L1479.5 41 L1479.5 42 L1479.5 43 L1479.5 44 L1479.5 45 L1479.5 46 L1479.5 47 L1479.5 48 L1479.5 49 L1479.5 50 L1479.5 51 L1479.5 52 L1479.5 53 L1479.5 54 L1479.5 55 L1479.5 56 L1479.5 57 L1479.5 58 L1479.5 59 L1479.5 60 L1479.5 61 L1479.5 62 L1479.5 63 L1479.5 64 L1479.5 65 L1479.5 66 L1479.5 67 L1479.5 68 L1479.5 69 L1479.5 70 L1479.5 71 L1479.5 72 L1480 72.5 L1481 72.5 L1482 72.5 L1483 72.5 L1484 72.5 L1485 72.5 L1486 72.5 L1487 72.5 L1488 72.5 L1489 72.5 L1490 72.5 L1491 72.5 L1492 72.5 L1493 72.5 L1494 72.5 L1495 72.5 L1496 72.5 L1497 72.5 L1498 72.5 L1499 72.5 L1500 72.5 L1501 72.5 L1502 72.5 L1503 72.5 L1504 72.5 L1505 72.5 L1506 72.5 L1507 72.5 L1508 72.5 L1509 72.5 L1510 72.5 L1511 72.5 L1512 72.5 L1513 72.5 L1514 72.5 L1515 72.5 L1516 72.5 L1517 72.5 L1518 72.5 L1519 72.5 L1520 72.5 L1521 72.5 L1522 72.5 L1523 72.5 L1524 72.5 L1525 72.5 L1526 72.5 L1527 72.5 L1528 72.5 L1529 72.5 L1530 72.5 L1531 72.5 L1532 72.5 L1533 72.5 L1534 72.5 L1535 72.5 L1536 72.5 L1537 72.5 L1538 72.5 L1539 72.5 L1540 72.5 L1541 72.5 L1542 72.5 L1543 72.5 L1544 72.5 L1545 72.5 L1546 72.5 L1547 72.5 L1548 72.5 L1549 72.5 L1550 72.5 L1551 72.5 L1552 72.5 L1553 72.5 L1554 72.5 L1555 72.5 L1556 72.5 L1557 72.5 L1558 72.5 L1559 72.5 L1560 72.5 L1561 72.5 L1562 72.5 L1563 72.5 L1564 72.5 L1565 72.5 L1566 72.5 L1567 72.5 L1568 72.5 L1569 72.5 L1570 72.5 L1571 72.5 L1572 72.5 L1573 72.5 L1574 72.5 L1575 72.5 L1576 72.5 L1577 72.5 L1578 72.5 L1579 72.5 L1580 72.5 L1581 72.5 L1582 72.5 L1582.5 72 L1582.5 71 L1582.5 70 L1582.5 69 L1582.5 68 L1582.5 67 L1582.5 66 L1582.5 65 L1582.5 64 L1582.5 63 L1582.5 62 L1582.5 61 L1582.5 60 L1582.5 59 L1582.5 58 L1582.5 57 L1582.5 56 L1582.5 55 L1582.5 54 L1582.5 53 L1582.5 52 L1582.5 51 L1582.5 50 L1582.5 49 L1582.5 48 L1582.5 47 L1582.5 46 L1582.5 45 L1582.5 44 L1582.5 43 L1582.5 42 L1582.5 41 L1582.5 40 L1582.5 39 L1582.5 38 L1582.5 37 L1582.5 36 L1582.5 35 L1582.5 34 L1582.5 33 L1582.5 32 L1582.5 31 L1582.5 30 L1582.5 29 L1582.5 28 L1582.5 27 L1582.5 26 L1582.5 25 L1582.5 24 L1582.5 23 L1582.5 22 L1582.5 21 L1582.5 20 L1582.5 19 L1583 18.5 L1584 18.5 L1585 18.5 L1586 18.5 L1587 18.5 L1588 18.5 L1589 18.5 L1590 18.5 L1591 18.5 L1592 18.5 L1593 18.5 L1594 18.5 L1595 18.5 L1596 18.5 L1597 18.5 L1598 18.5 L1599 18.5 L1600 18.5 L1601 18.5 L1602 18.5 L1603 18.5 L1604 18.5 L1605 18.5 L1606 18.5 L1607 18.5 L1607.5 19 L1607.5 20 L1607.5 21 L1607.5 22 L1607.5 23 L1607.5 24 L1607.5 25 L1607.5 26 L1607.5 27 L1607.5 28 L1607.5 29 L1607.5 30 L1607.5 31 L1607.5 32 L1607.5 33 L1607.5 34 L1607.5 35 L1607.5 36 L1607.5 37 L1607.5 38 L1607.5 39 L1607.5 40 L1607.5 41 L1607.5 42 L1607.5 43 L1607.5 44 L1607.5 45 L1607.5 46 L1607.5 47 L1607.5 48 L1607.5 49 L1607.5 50 L1607.5 51 L1607.5 52 L1607.5 53 L1607.5 54 L1607.5 55 L1607.5 56 L1607.5 57 L1607.5 58 L1607.5 59 L1607.5 60 L1607.5 61 L1607.5 62 L1607.5 63 L1607.5 64 L1607.5 65 L1607.5 66 L1607.5 67 L1607.5 68 L1607.5 69 L1607.5 70 L1607.5 71 L1607.5 72 L1607.5 73 L1607.5 74 L1607.5 75 L1607.5 76 L1607.5 77 L1607.5 78 L1607.5 79 L1607.5 80 L1607.5 81 L1607.5 82 L1607.5 83 L1607.5 84 L1607.5 85 L1607.5 86 L1607.5 87 L1607.5 88 L1607.5 89 L1607.5 90 L1607.5 91 L1607.5 92 L1607.5 93 L1607.5 94 L1607.5 95 L1607.5 96 L1607.5 97 L1607.5 98 L1607.5 99 L1607.5 100 L1607.5 101 L1607.5 102 L1607.5 103 L1607.5 104 L1607.5 105 L1607.5 106 L1607.5 107 L1607.5 108 L1607.5 109 L1607.5 110 L1607.5 111 L1607.5 112 L1607.5 113 L1607.5 114 L1607.5 115 L1607.5 116 L1607.5 117 L1607.5 118 L1607.5 119 L1607.5 120 L1607.5 121 L1607.5 122 L1607.5 123 L1607.5 124 L1607.5 125 L1607.5 126 L1607.5 127 L1607.5 128 L1607.5 129 L1607.5 130 L1607.5 131 L1607.5 132 L1607.5 133 L1607.5 134 L1607.5 135 L1607.5 136 L1607.5 137 L1607.5 138 L1607.5 139 L1607.5 140 L1607.5 141 L1607.5 142 L1607.5 143 L1607.5 144 L1607.5 145 L1607.5 146 L1607.5 147 L1607.5 148 L1607.5 149 L1607.5 150 L1607.5 151 L1607.5 152 L1607.5 153 L1607 153.5 L1606 153.5 L1605 153.5 L1604 153.5 L1603 153.5 L1602 153.5 L1601 153.5 L1600 153.5 L1599 153.5 L1598 153.5 L1597 153.5 L1596 153.5 L1595 153.5 L1594 153.5 L1593 153.5 L1592 153.5 L1591 153.5 L1590 153.5 L1589 153.5 L1588 153.5 L1587 153.5 L1586 153.5 L1585 153.5 L1584 153.5 L1583 153.5 L1582.5 153 L1582.5 152 L1582.5 151 L1582.5 150 L1582.5 149 L1582.5 148 L1582.5 147 L1582.5 146 L1582.5 145 L1582.5 144 L1582.5 143 L1582.5 142 L1582.5 141 L1582.5 140 L1582.5 139 L1582.5 138 L1582.5 137 L1582.5 136 L1582.5 135 L1582.5 134 L1582.5 133 L1582.5 132 L1582.5 131 L1582.5 130 L1582.5 129 L1582.5 128 L1582.5 127 L1582.5 126 L1582.5 125 L1582.5 124 L1582.5 123 L1582.5 122 L1582.5 121 L1582.5 120 L1582.5 119 L1582.5 118 L1582.5 117 L1582.5 116 L1582.5 115 L1582.5 114 L1582.5 113 L1582.5 112 L1582.5 111 L1582.5 110 L1582.5 109 L1582.5 108 L1582.5 107 L1582.5 106 L1582.5 105 L1582.5 104 L1582.5 103 L1582.5 102 L1582.5 101 L1582.5 100 L1582.5 99 L1582 98.5 L1581 98.5 L1580 98.5 L1579 98.5 L1578 98.5 L1577 98.5 L1576 98.5 L1575 98.5 L1574 98.5 L1573 98.5 L1572 98.5 L1571 98.5 L1570 98.5 L1569 98.5 L1568 98.5 L1567 98.5 L1566 98.5 L1565 98.5 L1564 98.5 L1563 98.5 L1562 98.5 L1561 98.5 L1560 98.5 L1559 98.5 L1558 98.5 L1557 98.5 L1556 98.5 L1555 98.5 L1554 98.5 L1553 98.5 L1552 98.5 L1551 98.5 L1550 98.5 L1549 98.5 L1548 98.5 L1547 98.5 L1546 98.5 L1545 98.5 L1544 98.5 L1543 98.5 L1542 98.5 L1541 98.5 L1540 98.5 L1539 98.5 L1538 98.5 L1537 98.5 L1536 98.5 L1535 98.5 L1534 98.5 L1533 98.5 L1532 98.5 L1531 98.5 L1530 98.5 L1529 98.5 L1528 98.5 L1527 98.5 L1526 98.5 L1525 98.5 L1524 98.5 L1523 98.5 L1522 98.5 L1521 98.5 L1520 98.5 L1519 98.5 L1518 98.5 L1517 98.5 L1516 98.5 L1515 98.5 L1514 98.5 L1513 98.5 L1512 98.5 L1511 98.5 L1510 98.5 L1509 98.5 L1508 98.5 L1507 98.5 L1506 98.5 L1505 98.5 L1504 98.5 L1503 98.5 L1502 98.5 L1501 98.5 L1500 98.5 L1499 98.5 L1498 98.5 L1497 98.5 L1496 98.5 L1495 98.5 L1494 98.5 L1493 98.5 L1492 98.5 L1491 98.5 L1490 98.5 L1489 98.5 L1488 98.5 L1487 98.5 L1486 98.5 L1485 98.5 L1484 98.5 L1483 98.5 L1482 98.5 L1481 98.5 L1480 98.5 L1479.5 99 L1479.5 100 L1479.5 101 L1479.5 102 L1479.5 103 L1479.5 104 L1479.5 105 L1479.5 106 L1479.5 107 L1479.5 108 L1479.5 109 L1479.5 110 L1479.5 111 L1479.5 112 L1479.5 113 L1479.5 114 L1479.5 115 L1479.5 116 L1479.5 117 L1479.5 118 L1479.5 119 L1479.5 120 L1479.5 121 L1479.5 122 L1479.5 123 L1479.5 124 L1479.5 125 L1479.5 126 L1479.5 127 L1479.5 128 L1479.5 129 L1479.5 130 L1479.5 131 L1479.5 132 L1479.5 133 L1479.5 134 L1479.5 135 L1479.5 136 L1479.5 137 L1479.5 138 L1479.5 139 L1479.5 140 L1479.5 141 L1479.5 142 L1479.5 143 L1479.5 144 L1479.5 145 L1479.5 146 L1479.5 147 L1479.5 148 L1479.5 149 L1479.5 150 L1479.5 151 L1479.5 152 L1479.05 153 L1479 153.05 L1478 153.5 L1477 153.5 L1476 153.5 L1475 153.5 L1474 153.5 L1473 153.5 L1472 153.5 L1471 153.5 L1470 153.5 L1469 153.5 L1468 153.5 L1467 153.5 L1466 153.5 L1465 153.5 L1464 153.5 L1463 153.5 L1462 153.5 L1461 153.5 L1460 153.5 L1459 153.5 L1458 153.5 L1457 153.5 L1456 153.5 L1455 153.5 L1454.5 153 L1454.5 152 L1454.5 151 L1454.5 150 L1454.5 149 L1454.5 148 L1454.5 147 L1454.5 146 L1454.5 145 L1454.5 144 L1454.5 143 L1454.5 142 L1454.5 141 L1454.5 140 L1454.5 139 L1454.5 138 L1454.5 137 L1454.5 136 L1454.5 135 L1454.5 134 L1454.5 133 L1454.5 132 L1454.5 131 L1454.5 130 L1454.5 129 L1454.5 128 L1454.5 127 L1454.5 126 L1454.5 125 L1454.5 124 L1454.5 123 L1454.5 122 L1454.5 121 L1454.5 120 L1454.5 119 L1454.5 118 L1454.5 117 L1454.5 116 L1454.5 115 L1454.5 114 L1454.5 113 L1454.5 112 L1454.5 111 L1454.5 110 L1454.5 109 L1454.5 108 L1454.5 107 L1454.5 106 L1454.5 105 L1454.5 104 L1454.5 103 L1454.5 102 L1454.5 101 L1454.5 100 L1454.5 99 L1454.5 98 L1454.5 97 L1454.5 96 L1454.5 95 L1454.5 94 L1454.5 93 L1454.5 92 L1454.5 91 L1454.5 90 L1454.5 89 L1454.5 88 L1454.5 87 L1454.5 86 L1454.5 85 L1454.5 84 L1454.5 83 L1454.5 82 L1454.5 81 L1454.5 80 L1454.5 79 L1454.5 78 L1454.5 77 L1454.5 76 L1454.5 75 L1454.5 74 L1454.5 73 L1454.5 72 L1454.5 71 L1454.5 70 L1454.5 69 L1454.5 68 L1454.5 67 L1454.5 66 L1454.5 65 L1454.5 64 L1454.5 63 L1454.5 62 L1454.5 61 L1454.5 60 L1454.5 59 L1454.5 58 L1454.5 57 L1454.5 56 L1454.5 55 L1454.5 54 L1454.5 53 L1454.5 52 L1454.5 51 L1454.5 50 L1454.5 49 L1454.5 48 L1454.5 47 L1454.5 46 L1454.5 45 L1454.5 44 L1454.5 43 L1454.5 42 L1454.5 41 L1454.5 40 L1454.5 39 L1454.5 38 L1454.5 37 L1454.5 36 L1454.5 35 L1454.5 34 L1454.5 33 L1454.5 32 L1454.5 31 L1454.5 30 L1454.5 29 L1454.5 28 L1454.5 27 L1454.5 26 L1454.5 25 L1454.5 24 L1454.5 23 L1454.5 22 L1454.5 21 L1454.5 20 L1454.5 19 Z M688.83 26 L689 25.83 L689.17 26 L689 26.17 L688.83 26 Z M687.84 27 L688 26.84 L688.16 27 L688 27.16 L687.84 27 Z M653.5 28 L654 27.5 L654.5 28 L654 28.5 L653.5 28 Z M686.62 28 L687 27.62 L687.38 28 L687 28.38 L686.62 28 Z M652.71 29 L653 28.71 L653.29 29 L653 29.29 L652.71 29 Z M685.5 29 L686 28.5 L686.5 29 L686 29.5 L685.5 29 Z M645.5 37 L646 36.5 L646.5 37 L646 37.5 L645.5 37 Z M644.5 38 L645 37.5 L645.5 38 L645 38.5 L644.5 38 Z M677.51 38 L678 37.51 L678.49 38 L678 38.49 L677.51 38 Z M676.5 39 L677 38.5 L677.5 39 L677 39.5 L676.5 39 Z M675.5 40 L676 39.5 L676.5 40 L676 40.5 L675.5 40 Z M637.5 46 L638 45.5 L638.5 46 L638 46.5 L637.5 46 Z M636.83 47 L637 46.83 L637.17 47 L637 47.17 L636.83 47 Z M666.69 50 L667 49.69 L667.31 50 L667 50.31 L666.69 50 Z M665.57 51 L666 50.57 L666.43 51 L666 51.43 L665.57 51 Z M664.5 52 L665 51.5 L665.5 52 L665 52.5 L664.5 52 Z M628.6 56 L629 55.6 L629.4 56 L629 56.4 L628.6 56 Z M627.5 60 L628 59.5 L628.5 60 L628 60.5 L627.5 60 Z M628.5 61 L629 60.5 L629.5 61 L629 61.5 L628.5 61 Z M655.5 62 L656 61.5 L656.5 62 L656 62.5 L655.5 62 Z M636.56 70 L637 69.56 L637.44 70 L637 70.44 L636.56 70 Z M647.8 71 L648 70.8 L648.2 71 L648 71.2 L647.8 71 Z M646.57 72 L647 71.57 L647.43 72 L647 72.43 L646.57 72 Z M645.5 73 L646 72.5 L646.5 73 L646 73.5 L645.5 73 Z M990.74 73 L991 72.74 L992 72.5 L993 72.5 L994 72.5 L995 72.5 L996 72.5 L997 72.5 L998 72.5 L999 72.5 L1000 72.5 L1001 72.5 L1002 72.5 L1003 72.5 L1004 72.5 L1005 72.5 L1006 72.5 L1007 72.5 L1008 72.5 L1009 72.5 L1010 72.5 L1011 72.5 L1012 72.5 L1013 72.5 L1014 72.5 L1015 72.5 L1016 72.5 L1017 72.5 L1018 72.5 L1019 72.5 L1020 72.5 L1021 72.5 L1022 72.5 L1023 72.5 L1024 72.5 L1025 72.5 L1026 72.5 L1027 72.5 L1028 72.5 L1029 72.5 L1030 72.5 L1031 72.5 L1032 72.5 L1033 72.5 L1034 72.5 L1035 72.5 L1036 72.5 L1037 72.5 L1038 72.5 L1039 72.5 L1040 72.5 L1041 72.5 L1042 72.5 L1043 72.5 L1044 72.5 L1045 72.5 L1046 72.5 L1047 72.5 L1048 72.5 L1049 72.5 L1050 72.5 L1051 72.5 L1052 72.5 L1053 72.5 L1054 72.5 L1055 72.5 L1056 72.5 L1057 72.5 L1058 72.5 L1059 72.5 L1060 72.5 L1061 72.5 L1062 72.5 L1063 72.5 L1064 72.5 L1065 72.5 L1066 72.5 L1067 72.5 L1068 72.5 L1069 72.5 L1070 72.5 L1071 72.5 L1072 72.5 L1073 72.5 L1074 72.5 L1075 72.5 L1076 72.5 L1077 72.5 L1078 72.5 L1079 72.5 L1080 72.5 L1081 72.5 L1082 72.5 L1083 72.5 L1084 72.5 L1085 72.5 L1086 72.5 L1087 72.5 L1088 72.5 L1089 72.5 L1090 72.5 L1091 72.5 L1092 72.5 L1093 72.5 L1094 72.5 L1095 72.5 L1096 72.5 L1097 72.5 L1098 72.5 L1099 72.5 L1100 72.5 L1101 72.5 L1102 72.5 L1103 72.5 L1104 72.5 L1105 72.5 L1106 72.5 L1107 72.5 L1108 72.5 L1109 72.5 L1110 72.5 L1111 72.5 L1112 72.5 L1113 72.5 L1114 72.5 L1115 72.5 L1116 72.5 L1117 72.5 L1118 72.5 L1119 72.5 L1120 72.5 L1121 72.5 L1122 72.5 L1123 72.5 L1124 72.5 L1125 72.5 L1126 72.5 L1127 72.5 L1127.71 73 L1128 73.29 L1128.5 74 L1128.5 75 L1128.5 76 L1128.5 77 L1128.5 78 L1128.5 79 L1128.5 80 L1128.5 81 L1128.5 82 L1128.5 83 L1128.5 84 L1128.5 85 L1128.5 86 L1128.5 87 L1128.5 88 L1128.5 89 L1128.5 90 L1128.5 91 L1128.5 92 L1128.5 93 L1128.5 94 L1128.5 95 L1128.5 96 L1128.5 97 L1128.5 98 L1128 98.5 L1127 98.5 L1126 98.5 L1125 98.5 L1124 98.5 L1123 98.5 L1122 98.5 L1121 98.5 L1120 98.5 L1119 98.5 L1118 98.5 L1117 98.5 L1116 98.5 L1115 98.5 L1114 98.5 L1113 98.5 L1112 98.5 L1111 98.5 L1110 98.5 L1109 98.5 L1108 98.5 L1107 98.5 L1106 98.5 L1105 98.5 L1104 98.5 L1103 98.5 L1102 98.5 L1101 98.5 L1100 98.5 L1099 98.5 L1098 98.5 L1097 98.5 L1096 98.5 L1095 98.5 L1094 98.5 L1093 98.5 L1092 98.5 L1091 98.5 L1090 98.5 L1089 98.5 L1088 98.5 L1087 98.5 L1086 98.5 L1085 98.5 L1084 98.5 L1083 98.5 L1082 98.5 L1081 98.5 L1080 98.5 L1079 98.5 L1078 98.5 L1077 98.5 L1076 98.5 L1075 98.5 L1074 98.5 L1073 98.5 L1072 98.5 L1071 98.5 L1070 98.5 L1069 98.5 L1068 98.5 L1067 98.5 L1066 98.5 L1065 98.5 L1064 98.5 L1063 98.5 L1062 98.5 L1061 98.5 L1060 98.5 L1059 98.5 L1058 98.5 L1057 98.5 L1056 98.5 L1055 98.5 L1054 98.5 L1053 98.5 L1052 98.5 L1051 98.5 L1050 98.5 L1049 98.5 L1048 98.5 L1047 98.5 L1046 98.5 L1045 98.5 L1044 98.5 L1043 98.5 L1042 98.5 L1041 98.5 L1040 98.5 L1039 98.5 L1038 98.5 L1037 98.5 L1036 98.5 L1035 98.5 L1034 98.5 L1033 98.5 L1032 98.5 L1031 98.5 L1030 98.5 L1029 98.5 L1028 98.5 L1027 98.5 L1026 98.5 L1025 98.5 L1024 98.5 L1023 98.5 L1022 98.5 L1021 98.5 L1020 98.5 L1019 98.5 L1018 98.5 L1017 98.5 L1016 98.5 L1015 98.5 L1014 98.5 L1013 98.5 L1012 98.5 L1011 98.5 L1010 98.5 L1009 98.5 L1008 98.5 L1007 98.5 L1006 98.5 L1005 98.5 L1004 98.5 L1003 98.5 L1002 98.5 L1001 98.5 L1000 98.5 L999 98.5 L998 98.5 L997 98.5 L996 98.5 L995 98.5 L994 98.5 L993 98.5 L992 98.5 L991 98.5 L990.5 98 L990.5 97 L990.5 96 L990.5 95 L990.5 94 L990.5 93 L990.5 92 L990.5 91 L990.5 90 L990.5 89 L990.5 88 L990.5 87 L990.5 86 L990.5 85 L990.5 84 L990.5 83 L990.5 82 L990.5 81 L990.5 80 L990.5 79 L990.5 78 L990.5 77 L990.5 76 L990.5 75 L990.5 74 L990.74 73 Z M642.54 76 L643 75.54 L643.46 76 L643 76.46 L642.54 76 Z M44 98.5 L43.5 99 L43.5 100 L43.5 101 L43.5 102 L43.5 103 L43.5 104 L43.5 105 L43.5 106 L43.5 107 L43.5 108 L43.5 109 L43.5 110 L43.5 111 L43.5 112 L43.5 113 L43.5 114 L43.5 115 L43.5 116 L43.5 117 L43.5 118 L43.5 119 L43.5 120 L43.5 121 L43.5 122 L43.5 123 L43.5 124 L43.5 125 L43.5 126 L43.5 127 L44 127.5 L45 127.5 L46 127.5 L47 127.5 L48 127.5 L49 127.5 L50 127.5 L51 127.5 L52 127.5 L53 127.5 L54 127.5 L55 127.5 L56 127.5 L57 127.5 L58 127.5 L59 127.5 L60 127.5 L61 127.5 L62 127.5 L63 127.5 L64 127.5 L65 127.5 L66 127.5 L67 127.5 L68 127.5 L69 127.5 L70 127.5 L71 127.5 L72 127.5 L73 127.5 L74 127.5 L75 127.5 L76 127.5 L77 127.5 L78 127.5 L79 127.5 L80 127.5 L81 127.5 L82 127.5 L83 127.5 L84 127.5 L85 127.5 L86 127.5 L87 127.5 L88 127.5 L89 127.5 L90 127.5 L91 127.5 L92 127.5 L93 127.5 L94 127.5 L95 127.5 L96 127.5 L97 127.5 L98 127.5 L99 127.5 L100 127.5 L101 127.5 L102 127.5 L103 127.5 L104 127.5 L105 127.5 L106 127.5 L107 127.5 L108 127.5 L109 127.5 L110 127.5 L111 127.5 L112 127.5 L113 127.5 L114 127.5 L115 127.5 L116 127.5 L117 127.5 L118 127.5 L119 127.5 L120 127.5 L121 127.5 L122 127.5 L123 127.5 L124 127.5 L125 127.5 L126 127.5 L127 127.5 L128 127.5 L129 127.5 L130 127.5 L131 127.5 L132 127.5 L133 127.5 L134 127.5 L135 127.5 L136 127.5 L137 127.5 L138 127.5 L139 127.5 L140 127.5 L141 127.5 L142 127.5 L143 127.5 L144 127.5 L145 127.5 L146 127.5 L147 127.5 L148 127.5 L149 127.5 L150 127.5 L151 127.5 L152 127.5 L153 127.5 L154 127.5 L155 127.5 L156 127.5 L157 127.5 L158 127.5 L159 127.5 L160 127.5 L161 127.5 L162 127.5 L163 127.5 L164 127.5 L165 127.5 L166 127.5 L167 127.5 L168 127.5 L168.54 127 L169 126.54 L170 126.5 L171 126.5 L171.5 126 L172 125.5 L173 125.46 L173.46 125 L174 124.5 L174.5 124 L175 123.5 L175.5 123 L176 122.5 L176.5 122 L177 121.5 L177.5 121 L177.5 120 L178 119.5 L178.5 119 L178.5 118 L178.5 117 L179 116.19 L179.19 116 L179.5 115 L179.5 114 L179.5 113 L179.5 112 L179.5 111 L179 110.42 L178.58 110 L178.5 109 L178.5 108 L178 107.5 L177.5 107 L177.5 106 L177 105.5 L176.5 105 L176 104.01 L176 104 L175.41 103 L175 102.59 L174 102.48 L173.52 102 L173 101.5 L172.5 101 L172 100.5 L171 100.5 L170.5 100 L170 99.5 L169 99.5 L168 99.5 L167.47 99 L167 98.53 L166 98.5 L165 98.5 L164 98.5 L163 98.5 L162 98.5 L161 98.5 L160 98.5 L159 98.5 L158 98.5 L157 98.5 L156 98.5 L155 98.5 L154 98.5 L153 98.5 L152 98.5 L151 98.5 L150 98.5 L149 98.5 L148 98.5 L147 98.5 L146 98.5 L145 98.5 L144 98.5 L143 98.5 L142 98.5 L141 98.5 L140 98.5 L139 98.5 L138 98.5 L137 98.5 L136 98.5 L135 98.5 L134 98.5 L133 98.5 L132 98.5 L131 98.5 L130 98.5 L129 98.5 L128 98.5 L127 98.5 L126 98.5 L125 98.5 L124 98.5 L123 98.5 L122 98.5 L121 98.5 L120 98.5 L119 98.5 L118 98.5 L117 98.5 L116 98.5 L115 98.5 L114 98.5 L113 98.5 L112 98.5 L111 98.5 L110 98.5 L109 98.5 L108 98.5 L107 98.5 L106 98.5 L105 98.5 L104 98.5 L103 98.5 L102 98.5 L101 98.5 L100 98.5 L99 98.5 L98 98.5 L97 98.5 L96 98.5 L95 98.5 L94 98.5 L93 98.5 L92 98.5 L91 98.5 L90 98.5 L89 98.5 L88 98.5 L87 98.5 L86 98.5 L85 98.5 L84 98.5 L83 98.5 L82 98.5 L81 98.5 L80 98.5 L79 98.5 L78 98.5 L77 98.5 L76 98.5 L75 98.5 L74 98.5 L73 98.5 L72 98.5 L71 98.5 L70 98.5 L69 98.5 L68 98.5 L67 98.5 L66 98.5 L65 98.5 L64 98.5 L63 98.5 L62 98.5 L61 98.5 L60 98.5 L59 98.5 L58 98.5 L57 98.5 L56 98.5 L55 98.5 L54 98.5 L53 98.5 L52 98.5 L51 98.5 L50 98.5 L49 98.5 L48 98.5 L47 98.5 L46 98.5 L45 98.5 L44 98.5 Z M991.68 128 L992 127.68 L993 127.67 L994 127.63 L995 127.57 L996 127.55 L997 127.52 L998 127.5 L999 127.5 L1000 127.5 L1001 127.5 L1002 127.5 L1003 127.5 L1004 127.5 L1005 127.5 L1006 127.5 L1007 127.5 L1008 127.5 L1009 127.5 L1010 127.5 L1011 127.5 L1012 127.5 L1013 127.5 L1014 127.5 L1015 127.5 L1016 127.5 L1017 127.5 L1018 127.5 L1019 127.5 L1020 127.5 L1021 127.5 L1022 127.5 L1023 127.5 L1024 127.5 L1025 127.5 L1026 127.5 L1027 127.5 L1028 127.5 L1029 127.5 L1030 127.5 L1031 127.5 L1032 127.5 L1033 127.5 L1034 127.5 L1035 127.5 L1036 127.5 L1037 127.5 L1038 127.5 L1039 127.5 L1040 127.5 L1041 127.5 L1042 127.5 L1043 127.5 L1044 127.5 L1045 127.5 L1046 127.5 L1047 127.5 L1048 127.5 L1049 127.5 L1050 127.5 L1051 127.5 L1052 127.5 L1053 127.5 L1054 127.5 L1055 127.5 L1056 127.5 L1057 127.5 L1058 127.5 L1059 127.5 L1060 127.5 L1061 127.5 L1062 127.5 L1063 127.5 L1064 127.5 L1065 127.5 L1066 127.5 L1067 127.5 L1068 127.5 L1069 127.5 L1070 127.5 L1071 127.5 L1072 127.5 L1073 127.5 L1074 127.5 L1075 127.5 L1076 127.5 L1077 127.5 L1078 127.5 L1079 127.5 L1080 127.5 L1081 127.5 L1082 127.5 L1083 127.5 L1084 127.5 L1085 127.5 L1086 127.5 L1087 127.5 L1088 127.5 L1089 127.5 L1090 127.5 L1091 127.5 L1092 127.5 L1093 127.5 L1094 127.5 L1095 127.5 L1096 127.5 L1097 127.5 L1098 127.5 L1099 127.5 L1100 127.5 L1101 127.5 L1102 127.5 L1103 127.5 L1104 127.5 L1105 127.5 L1106 127.5 L1107 127.5 L1108 127.5 L1109 127.5 L1110 127.5 L1111 127.5 L1112 127.5 L1113 127.5 L1114 127.5 L1115 127.5 L1116 127.5 L1117 127.5 L1118 127.5 L1119 127.5 L1120 127.5 L1121 127.5 L1122 127.5 L1123 127.5 L1124 127.5 L1125 127.5 L1126 127.5 L1127 127.5 L1128 127.5 L1129 127.5 L1130 127.5 L1131 127.5 L1132 127.5 L1133 127.5 L1134 127.5 L1135 127.5 L1136 127.5 L1137 127.5 L1138 127.5 L1139 127.5 L1140 127.5 L1141 127.5 L1141.92 128 L1142 128.08 L1142.5 129 L1142.5 130 L1142.5 131 L1142.5 132 L1142.5 133 L1142.5 134 L1142.5 135 L1142.5 136 L1142.5 137 L1142.5 138 L1142.5 139 L1142.5 140 L1142.5 141 L1142.5 142 L1142.5 143 L1142.5 144 L1142.5 145 L1142.5 146 L1142.5 147 L1142.5 148 L1142.5 149 L1142.5 150 L1142.5 151 L1142.5 152 L1142.5 153 L1142 153.5 L1141 153.5 L1140 153.5 L1139 153.5 L1138 153.5 L1137 153.5 L1136 153.5 L1135 153.5 L1134 153.5 L1133 153.5 L1132 153.5 L1131 153.5 L1130 153.5 L1129 153.5 L1128 153.5 L1127 153.5 L1126 153.5 L1125 153.5 L1124 153.5 L1123 153.5 L1122 153.5 L1121 153.5 L1120 153.5 L1119 153.5 L1118 153.5 L1117 153.5 L1116 153.5 L1115 153.5 L1114 153.5 L1113 153.5 L1112 153.5 L1111 153.5 L1110 153.5 L1109 153.5 L1108 153.5 L1107 153.5 L1106 153.5 L1105 153.5 L1104 153.5 L1103 153.5 L1102 153.5 L1101 153.5 L1100 153.5 L1099 153.5 L1098 153.5 L1097 153.5 L1096 153.5 L1095 153.5 L1094 153.5 L1093 153.5 L1092 153.5 L1091 153.5 L1090 153.5 L1089 153.5 L1088 153.5 L1087 153.5 L1086 153.5 L1085 153.5 L1084 153.5 L1083 153.5 L1082 153.5 L1081 153.5 L1080 153.5 L1079 153.5 L1078 153.5 L1077 153.5 L1076 153.5 L1075 153.5 L1074 153.5 L1073 153.5 L1072 153.5 L1071 153.5 L1070 153.5 L1069 153.5 L1068 153.5 L1067 153.5 L1066 153.5 L1065 153.5 L1064 153.5 L1063 153.5 L1062 153.5 L1061 153.5 L1060 153.5 L1059 153.5 L1058 153.5 L1057 153.5 L1056 153.5 L1055 153.5 L1054 153.5 L1053 153.5 L1052 153.5 L1051 153.5 L1050 153.5 L1049 153.5 L1048 153.5 L1047 153.5 L1046 153.5 L1045 153.5 L1044 153.5 L1043 153.5 L1042 153.5 L1041 153.5 L1040 153.5 L1039 153.5 L1038 153.5 L1037 153.5 L1036 153.5 L1035 153.5 L1034 153.5 L1033 153.5 L1032 153.5 L1031 153.5 L1030 153.5 L1029 153.5 L1028 153.5 L1027 153.5 L1026 153.5 L1025 153.5 L1024 153.5 L1023 153.5 L1022 153.5 L1021 153.5 L1020 153.5 L1019 153.5 L1018 153.5 L1017 153.5 L1016 153.5 L1015 153.5 L1014 153.5 L1013 153.5 L1012 153.5 L1011 153.5 L1010 153.5 L1009 153.5 L1008 153.5 L1007 153.5 L1006 153.5 L1005 153.5 L1004 153.5 L1003 153.5 L1002 153.5 L1001 153.5 L1000 153.5 L999 153.5 L998 153.5 L997 153.5 L996 153.5 L995 153.5 L994 153.5 L993 153.5 L992 153.5 L991 153.5 L990.5 153 L990.5 152 L990.5 151 L990.5 150 L990.5 149 L990.5 148 L990.5 147 L990.5 146 L990.5 145 L990.5 144 L990.5 143 L990.5 142 L990.5 141 L990.5 140 L990.5 139 L990.5 138 L990.5 137 L990.5 136 L990.5 135 L990.5 134 L990.5 133 L990.5 132 L990.5 131 L990.5 130 L990.5 129 L991 128.5 L991.68 128 Z"/>
  <path class="baytech-logo-accent" fill-rule="evenodd" d="M662.5 19 L663 18.5 L664 18.5 L665 18.5 L666 18.5 L667 18.5 L668 18.5 L669 18.5 L670 18.5 L671 18.5 L672 18.5 L673 18.5 L674 18.5 L675 18.5 L676 18.5 L677 18.5 L678 18.5 L679 18.5 L680 18.5 L681 18.5 L682 18.5 L683 18.5 L684 18.5 L685 18.5 L686 18.5 L687 18.5 L688 18.5 L689 18.5 L690 18.5 L691 18.5 L692 18.5 L693 18.5 L694 18.5 L694.5 19 L694.5 20 L694 20.5 L693.5 21 L693 21.5 L692.5 22 L692 22.5 L691.5 23 L691 23.5 L690.5 24 L690 24.5 L689.5 25 L689 25.5 L688.5 26 L688 26.5 L687.5 27 L687 27.5 L686.5 28 L686 28.5 L685.5 29 L685.5 30 L685 30.5 L684.5 31 L684 31.5 L683.5 32 L683 32.5 L682.5 33 L682 33.5 L681.5 34 L681 34.5 L680.5 35 L680 35.5 L679.5 36 L679 36.5 L678.5 37 L678 37.5 L677.5 38 L677 38.5 L676.5 39 L676 39.5 L675.5 40 L675.5 41 L675 41.5 L674.5 42 L674 42.5 L673.5 43 L673 43.5 L672.5 44 L672 44.5 L671.5 45 L671 45.5 L670.5 46 L670 46.5 L669.5 47 L669 47.5 L668.5 48 L668 48.5 L667.5 49 L667 49.5 L666.5 50 L666 50.5 L665.5 51 L665 51.5 L664.5 52 L664.5 53 L664 53.5 L663.5 54 L663 54.5 L662.5 55 L662 55.5 L661.5 56 L661 56.5 L660.5 57 L660 57.5 L659.5 58 L659 58.5 L658.5 59 L658 59.5 L657.5 60 L657 60.5 L656.5 61 L656 61.5 L655.5 62 L655.5 63 L655 63.5 L654.5 64 L654 64.5 L653.5 65 L653 65.5 L652.5 66 L652 66.5 L651.5 67 L651 67.5 L650.5 68 L650 68.5 L649.5 69 L649 69.5 L648.5 70 L648 70.5 L647.5 71 L647 71.5 L646.5 72 L646 72.5 L645.5 73 L645.5 74 L645 74.5 L644.5 75 L644 75.5 L643 75.5 L642 75.5 L641.5 75 L641 74.5 L640.5 74 L640 73.5 L639.5 73 L639 72.5 L638.5 72 L638 71.5 L637.5 71 L637.5 70 L637 69.5 L636.5 69 L636 68.5 L635.5 68 L635 67.5 L634.5 67 L634 66.5 L633.5 66 L633 65.5 L632.5 65 L632 64.5 L631.5 64 L631 63.5 L630.5 63 L630 62.5 L629.5 62 L629.5 61 L629 60.5 L628.5 60 L628 59.5 L627.5 59 L627.5 58 L628 57.5 L628.5 57 L629 56.5 L629.5 56 L629.5 55 L630 54.5 L630.5 54 L631 53.5 L631.5 53 L632 52.5 L632.5 52 L633 51.5 L633.5 51 L634 50.5 L634.5 50 L635 49.5 L635.5 49 L636 48.5 L636.5 48 L637 47.5 L637.5 47 L638 46.5 L638.5 46 L638.5 45 L639 44.5 L639.5 44 L640 43.5 L640.5 43 L641 42.5 L641.5 42 L642 41.5 L642.5 41 L643 40.5 L643.5 40 L644 39.5 L644.5 39 L645 38.5 L645.5 38 L646 37.5 L646.5 37 L646.5 36 L647 35.5 L647.5 35 L648 34.5 L648.5 34 L649 33.5 L649.5 33 L650 32.5 L650.5 32 L651 31.5 L651.5 31 L652 30.5 L652.5 30 L653 29.5 L653.5 29 L654 28.5 L654.5 28 L654.5 27 L655 26.5 L655.5 26 L656 25.5 L656.5 25 L657 24.5 L657.5 24 L658 23.5 L658.5 23 L659 22.5 L659.5 22 L660 21.5 L660.5 21 L661 20.5 L661.5 20 L662 19.5 L662.5 19 Z"/>
</svg>
